<svg version="1.1" xmlns="http://www.w3.org/2000/svg" viewBox="0 0 459.40387320846435 195.53027573187225" width="459.40387320846435" height="195.53027573187225">
  <!-- svg-source:excalidraw -->
  
  <defs>
    <style class="style-fonts">
      @font-face {
        font-family: "Virgil";
        src: url("https://excalidraw.com/Virgil.woff2");
      }
      @font-face {
        font-family: "Cascadia";
        src: url("https://excalidraw.com/Cascadia.woff2");
      }
    </style>
  </defs>
  <rect x="0" y="0" width="459.40387320846435" height="195.53027573187225" fill="#ffffff"/><g stroke-linecap="round" transform="translate(40.23563388508765 10.989455825477165) rotate(0 26.713348388671875 36.05865478515625)"><path d="M13.36 0 M13.36 0 C21.95 1.63, 28.74 0.28, 40.07 0 M13.36 0 C20.05 0.07, 26.79 0.12, 40.07 0 M40.07 0 C49.22 0.17, 54.03 4.88, 53.43 13.36 M40.07 0 C50.68 -2.03, 52.65 5.53, 53.43 13.36 M53.43 13.36 C53.57 29.13, 53.9 40.56, 53.43 58.76 M53.43 13.36 C52.72 27.62, 53.92 40.69, 53.43 58.76 M53.43 58.76 C53.92 66.57, 49.22 72.25, 40.07 72.12 M53.43 58.76 C53.6 66.38, 51.08 70.44, 40.07 72.12 M40.07 72.12 C35.55 71.6, 28.8 70.26, 13.36 72.12 M40.07 72.12 C28.85 71.82, 18.12 71.64, 13.36 72.12 M13.36 72.12 C3.14 71.38, -0.67 67.85, 0 58.76 M13.36 72.12 C3.84 72.81, -1.81 67.05, 0 58.76 M0 58.76 C-0.3 46.46, 0.38 31.7, 0 13.36 M0 58.76 C1.08 42.43, 0.09 25.14, 0 13.36 M0 13.36 C-1.01 3.94, 3.01 1.49, 13.36 0 M0 13.36 C-2.05 6.16, 3.87 1.69, 13.36 0" stroke="#000000" stroke-width="1" fill="none"/></g><g stroke-linecap="round"><g transform="translate(14.360421805955042 32.16104125081782) rotate(0 13.456889981836241 0.3851187504847928)"><path d="M0.05 0.85 C4.59 1.12, 23.31 1.26, 27.74 1.38 M-1.38 0.25 C3.03 0.19, 22.71 -0.33, 27.22 -0.42" stroke="#000000" stroke-width="1" fill="none"/></g></g><mask/><g stroke-linecap="round"><g transform="translate(10.881412888318295 64.91029342150547) rotate(0 13.275646481590513 0.7702104294982774)"><path d="M-0.88 0.52 C3.38 0.75, 21.91 1.56, 26.32 1.91 M0.86 -0.25 C4.87 -0.45, 20.73 -0.19, 25.25 -0.02" stroke="#000000" stroke-width="1" fill="none"/></g></g><mask/><g stroke-linecap="round" transform="translate(38.83200851533388 113.41296616155975) rotate(0 26.713348388671875 36.05865478515625)"><path d="M13.36 0 M13.36 0 C18.79 1.45, 27.65 0.82, 40.07 0 M13.36 0 C19.77 0.28, 25.04 -0.02, 40.07 0 M40.07 0 C50.47 -1.31, 54.58 6.38, 53.43 13.36 M40.07 0 C47.26 -1.7, 55.66 2.56, 53.43 13.36 M53.43 13.36 C52.87 22.42, 51.62 30.56, 53.43 58.76 M53.43 13.36 C52.32 28.32, 53.07 42.45, 53.43 58.76 M53.43 58.76 C54.98 68.34, 47.91 72.99, 40.07 72.12 M53.43 58.76 C54.87 67.32, 46.86 74.05, 40.07 72.12 M40.07 72.12 C30.76 70.97, 23.14 72.48, 13.36 72.12 M40.07 72.12 C29.36 73.36, 19.52 73.33, 13.36 72.12 M13.36 72.12 C4.94 70.78, 1.05 66.13, 0 58.76 M13.36 72.12 C4.12 73.9, 2.03 66.2, 0 58.76 M0 58.76 C-0.54 40.95, -0.65 25.76, 0 13.36 M0 58.76 C0.84 45.97, 1.06 34.72, 0 13.36 M0 13.36 C0.03 2.52, 5.48 0.74, 13.36 0 M0 13.36 C1.53 2.83, 4.76 0.43, 13.36 0" stroke="#000000" stroke-width="1" fill="none"/></g><g stroke-linecap="round"><g transform="translate(12.956796436201273 134.5845515869004) rotate(0 13.456889981836241 0.3851187504847928)"><path d="M-0.52 1.01 C3.96 1.07, 23.51 1.53, 27.92 1.4 M1.4 0.5 C5.73 0.72, 23.01 -0.52, 27.49 -0.39" stroke="#000000" stroke-width="1" fill="none"/></g></g><mask/><g stroke-linecap="round"><g transform="translate(11.959997792056754 165.34808426744263) rotate(0 13.275646481590513 0.7702104294982774)"><path d="M1.01 1 C5.37 1.18, 23.02 0.53, 27.18 0.55 M0.09 0.48 C4.25 0.83, 22.42 1.28, 26.57 1.57" stroke="#000000" stroke-width="1" fill="none"/></g></g><mask/><g stroke-linecap="round" transform="translate(189.0165180429185 10) rotate(0 26.713348388671875 36.05865478515625)"><path d="M13.36 0 M13.36 0 C18.81 0.39, 28.59 -1.77, 40.07 0 M13.36 0 C22.19 0.51, 33.32 0.66, 40.07 0 M40.07 0 C47.57 0.27, 53.8 5.32, 53.43 13.36 M40.07 0 C50.05 -0.84, 55.54 2.18, 53.43 13.36 M53.43 13.36 C52.8 27.51, 53.29 39.72, 53.43 58.76 M53.43 13.36 C53.72 24.44, 53.74 36.54, 53.43 58.76 M53.43 58.76 C52.08 65.75, 50.44 70.17, 40.07 72.12 M53.43 58.76 C53.48 69.71, 48.12 73.97, 40.07 72.12 M40.07 72.12 C33.65 70.45, 30.78 70.78, 13.36 72.12 M40.07 72.12 C29.97 72.21, 20.9 72.27, 13.36 72.12 M13.36 72.12 C4.18 73.76, 1.6 67.67, 0 58.76 M13.36 72.12 C2.75 71.55, -2.03 68.44, 0 58.76 M0 58.76 C2.21 41.68, -0.93 24.48, 0 13.36 M0 58.76 C0.46 40.35, 0.71 24.32, 0 13.36 M0 13.36 C-1.17 4.98, 2.53 0.61, 13.36 0 M0 13.36 C2.03 5.35, 4.66 0.1, 13.36 0" stroke="#000000" stroke-width="1" fill="none"/></g><g stroke-linecap="round"><g transform="translate(96.12279265276214 33.157304915486094) rotate(0 46.96614663734812 -0.6077409945879282)"><path d="M-1.03 0.17 C14.8 -0.14, 78.52 -2.04, 94.48 -2.34 M0.64 -0.79 C16.39 -0.95, 78.19 -1.44, 93.82 -1.39" stroke="#000000" stroke-width="1" fill="none"/></g></g><mask/><g stroke-linecap="round"><g transform="translate(95.62251186343559 65.41014751724089) rotate(0 43.80626975894168 31.300874314056372)"><path d="M0.17 0.55 C7.35 6.3, 28.1 23.16, 42.61 33.51 C57.11 43.85, 79.91 57.67, 87.21 62.62 M-1.2 -0.21 C6.37 5.3, 30.16 21.11, 44.73 31.8 C59.3 42.5, 79.34 59.08, 86.24 63.95" stroke="#000000" stroke-width="1" fill="none"/></g></g><mask/><g stroke-linecap="round" transform="translate(186.3144603511297 106.50416426108072) rotate(0 26.713348388671875 36.05865478515625)"><path d="M13.36 0 M13.36 0 C23.56 -1.08, 32.47 -1.81, 40.07 0 M13.36 0 C22.67 0.25, 32.75 -0.78, 40.07 0 M40.07 0 C47.2 0.73, 51.71 6.23, 53.43 13.36 M40.07 0 C49.22 0.77, 51.88 3.7, 53.43 13.36 M53.43 13.36 C53.26 24.42, 53.26 36.88, 53.43 58.76 M53.43 13.36 C53.62 28.71, 53.46 44.48, 53.43 58.76 M53.43 58.76 C55.42 69.64, 47.79 73.69, 40.07 72.12 M53.43 58.76 C51.14 65.91, 48.5 71.16, 40.07 72.12 M40.07 72.12 C30.63 70.65, 18.71 71.15, 13.36 72.12 M40.07 72.12 C31.77 71.6, 24.42 72.67, 13.36 72.12 M13.36 72.12 C3.78 70.79, -1.04 66.37, 0 58.76 M13.36 72.12 C5.3 71.54, 0.53 67.34, 0 58.76 M0 58.76 C2.2 47.48, 0.29 37.58, 0 13.36 M0 58.76 C0.62 47.51, -0.85 36.78, 0 13.36 M0 13.36 C1.96 2.6, 5.82 -0.03, 13.36 0 M0 13.36 C0.14 6.66, 4.66 -1.8, 13.36 0" stroke="#000000" stroke-width="1" fill="none"/></g><g stroke-linecap="round"><g transform="translate(92.42796996605006 128.6686229672297) rotate(0 46.96611956587685 -31.386623199348122)"><path d="M0.75 -0.49 C16.54 -11.3, 78.98 -53.22, 94.66 -63.7 M-0.32 -1.79 C15.39 -11.98, 78.29 -52.56, 94.09 -62.65" stroke="#000000" stroke-width="1" fill="none"/></g></g><mask/><g stroke-linecap="round"><g transform="translate(93.41686374057969 158.4392823669636) rotate(0 46.288439425226954 0.7702104294982774)"><path d="M-0.49 0.73 C14.59 1.01, 76.23 2.44, 91.65 2.43 M1.46 0.06 C16.8 -0.05, 78.96 0.54, 93.88 0.78" stroke="#000000" stroke-width="1" fill="none"/></g></g><mask/><g stroke-linecap="round" transform="translate(361.55751484382904 12.343875055231479) rotate(0 26.713348388671875 36.05865478515625)"><path d="M13.36 0 M13.36 0 C20.1 -0.21, 24.79 -1.06, 40.07 0 M13.36 0 C20.11 0.49, 26.31 0.44, 40.07 0 M40.07 0 C48.89 1.61, 53.48 3.13, 53.43 13.36 M40.07 0 C50.27 2.26, 51.3 6.02, 53.43 13.36 M53.43 13.36 C53.63 25.35, 53.01 40.16, 53.43 58.76 M53.43 13.36 C53.21 30.92, 52.79 47.83, 53.43 58.76 M53.43 58.76 C54.42 67.81, 49.75 71.94, 40.07 72.12 M53.43 58.76 C53.01 66.28, 48.25 73.55, 40.07 72.12 M40.07 72.12 C35.02 72.54, 26.44 73.55, 13.36 72.12 M40.07 72.12 C33.68 73.16, 27.9 72.9, 13.36 72.12 M13.36 72.12 C4.59 73.78, -1.34 68.34, 0 58.76 M13.36 72.12 C3.48 73.26, 2.12 67.01, 0 58.76 M0 58.76 C1.23 47.26, 1.76 39.85, 0 13.36 M0 58.76 C0.2 40.96, 0.67 25.55, 0 13.36 M0 13.36 C-0.6 5.41, 3.95 0.85, 13.36 0 M0 13.36 C1.3 3.41, 2.74 -0.52, 13.36 0" stroke="#000000" stroke-width="1" fill="none"/></g><g stroke-linecap="round"><g transform="translate(243.84217400523386 33.019023840167904) rotate(0 58.13588983202833 0.6333370706868777)"><path d="M0.28 -0.17 C19.47 -0.02, 96.35 0.16, 115.59 0.59 M-1.04 -1.3 C18.51 -0.98, 98.67 1.44, 117.95 1.77" stroke="#000000" stroke-width="1" fill="none"/></g></g><mask/><g stroke-linecap="round"><g transform="translate(246.32037770097605 66.26471265125974) rotate(0 57.954646331782605 29.811577928579496)"><path d="M-0.17 -0.68 C19.09 9.12, 95.69 49.02, 115.23 59.05 M-1.71 1.58 C17.96 11.5, 97.82 50.42, 117.59 60.28" stroke="#000000" stroke-width="1" fill="none"/></g></g><mask/><g stroke-linecap="round" transform="translate(361.38626071648696 103.10967247679241) rotate(0 26.713348388671875 36.05865478515625)"><path d="M13.36 0 M13.36 0 C20.65 1.17, 24.7 -0.24, 40.07 0 M13.36 0 C22.09 0.81, 28.6 -0.53, 40.07 0 M40.07 0 C47.23 0.08, 53.33 4.85, 53.43 13.36 M40.07 0 C48.3 -2.17, 52.7 5.01, 53.43 13.36 M53.43 13.36 C54.24 30.24, 55.01 47.48, 53.43 58.76 M53.43 13.36 C53.21 27.01, 53.52 38.08, 53.43 58.76 M53.43 58.76 C55.15 68.28, 49.08 73.19, 40.07 72.12 M53.43 58.76 C53.26 66.46, 47.49 73.74, 40.07 72.12 M40.07 72.12 C32.41 70.91, 23.34 70.15, 13.36 72.12 M40.07 72.12 C32.3 71.01, 24.87 70.99, 13.36 72.12 M13.36 72.12 C4.56 71.35, 1.94 66.03, 0 58.76 M13.36 72.12 C6.21 74.13, -0.7 66.31, 0 58.76 M0 58.76 C-0.47 42.03, 1.68 26.88, 0 13.36 M0 58.76 C-0.38 41.65, 0.05 25.03, 0 13.36 M0 13.36 C-1.84 6.3, 3.74 -0.36, 13.36 0 M0 13.36 C-0.79 6.1, 5.82 1.52, 13.36 0" stroke="#000000" stroke-width="1" fill="none"/></g><g stroke-linecap="round"><g transform="translate(240.69230003546676 125.27410411147008) rotate(0 59.12873604136535 -29.64909495793347)"><path d="M0.66 0.75 C20.24 -9.21, 98.02 -49.21, 117.62 -59.4 M-0.46 0.1 C19.51 -9.7, 100.34 -47.95, 120 -57.91" stroke="#000000" stroke-width="1" fill="none"/></g></g><mask/><g stroke-linecap="round"><g transform="translate(239.6954472483796 160.0091299152458) rotate(0 60.685047854005624 -1.7119592367869956)"><path d="M0.75 -0.63 C20.9 -1.31, 101.35 -2.86, 121.27 -3.4 M-0.32 1.65 C19.64 1.12, 99.79 -1.11, 120.27 -1.85" stroke="#000000" stroke-width="1" fill="none"/></g></g><mask/><g stroke-linecap="round"><g transform="translate(421.30053303344266 34.28374516007432) rotate(0 13.456889981836241 0.3851187504847928)"><path d="M1.1 0.33 C5.51 0.26, 22.23 -0.19, 26.68 -0.19 M0.21 -0.55 C4.43 -0.51, 21.06 0.51, 25.62 0.85" stroke="#000000" stroke-width="1" fill="none"/></g></g><mask/><g stroke-linecap="round"><g transform="translate(417.8215241158059 67.03299733076199) rotate(0 13.275646481590513 0.7702104294982774)"><path d="M0.33 -0.23 C4.56 0, 21.29 2.31, 25.59 2.45 M-0.96 -1.39 C3.63 -0.98, 23.45 0.33, 27.8 0.81" stroke="#000000" stroke-width="1" fill="none"/></g></g><mask/><g stroke-linecap="round"><g transform="translate(422.58648206237046 125.86433972433807) rotate(0 13.456889981836241 0.3851187504847928)"><path d="M0.89 -0.06 C5.29 0.36, 22.56 1.6, 26.82 1.59 M-0.11 -1.14 C4.1 -0.97, 21.56 -0.41, 25.82 -0.11" stroke="#000000" stroke-width="1" fill="none"/></g></g><mask/><g stroke-linecap="round"><g transform="translate(419.1074731447337 158.61359189502573) rotate(0 13.275646481590513 0.7702104294982774)"><path d="M-0.06 -0.1 C4.66 -0.07, 23.09 0.63, 27.37 1.07 M-1.55 -1.19 C3.16 -1.08, 21.92 2.04, 26.85 2.36" stroke="#000000" stroke-width="1" fill="none"/></g></g><mask/><g transform="translate(28.212571980208764 14.406274035369705) rotate(0 -0.3703041076660156 3.536914825439453)" stroke="none"><path fill="#000000" d="M 0.78,0.32 Q 0.78,0.32 0.43,1.23 0.07,2.13 -0.06,2.77 -0.20,3.41 0.32,4.94 0.85,6.47 0.93,6.55 1.01,6.62 1.06,6.72 1.10,6.81 1.12,6.91 1.14,7.02 1.12,7.12 1.10,7.23 1.05,7.32 1.01,7.42 0.93,7.49 0.85,7.56 0.75,7.61 0.66,7.65 0.55,7.66 0.45,7.67 0.34,7.65 0.24,7.63 0.15,7.57 0.06,7.52 -0.00,7.44 -0.07,7.36 -0.11,7.26 -0.15,7.16 -0.15,7.05 -0.16,6.95 -0.13,6.84 -0.10,6.74 -0.04,6.65 0.01,6.57 0.09,6.50 0.18,6.44 0.28,6.40 0.38,6.37 0.48,6.37 0.59,6.37 0.69,6.40 0.79,6.44 0.87,6.50 0.96,6.57 1.02,6.65 1.08,6.74 1.11,6.85 1.14,6.95 1.13,7.05 1.12,7.16 1.08,7.26 1.04,7.36 0.98,7.44 0.91,7.52 0.82,7.57 0.73,7.63 0.62,7.65 0.52,7.67 0.41,7.66 0.31,7.65 0.21,7.61 0.11,7.56 0.11,7.56 0.11,7.56 -0.95,5.88 -2.01,4.20 -1.97,3.62 -1.92,3.03 -1.75,2.24 -1.57,1.44 -1.17,0.56 -0.78,-0.32 -0.73,-0.41 -0.68,-0.50 -0.61,-0.58 -0.54,-0.65 -0.45,-0.71 -0.37,-0.76 -0.27,-0.80 -0.17,-0.83 -0.07,-0.84 0.02,-0.85 0.13,-0.83 0.23,-0.82 0.32,-0.78 0.42,-0.74 0.50,-0.67 0.58,-0.61 0.65,-0.53 0.71,-0.46 0.76,-0.36 0.80,-0.27 0.82,-0.17 0.84,-0.07 0.84,0.02 0.84,0.13 0.81,0.22 0.78,0.32 0.78,0.32 L 0.78,0.32 Z"/></g><g transform="translate(25.377794148177514 108.66438408175642) rotate(0 -1.2769279479980469 7.648414611816406)" stroke="none"><path fill="#000000" d="M 0.51,0.60 Q 0.51,0.60 0.15,1.02 -0.19,1.43 -0.47,1.91 -0.75,2.39 -0.83,3.08 -0.91,3.77 -0.94,4.47 -0.98,5.16 -0.99,6.02 -1.00,6.89 -1.02,7.81 -1.04,8.73 -1.07,9.65 -1.10,10.58 -1.12,11.35 -1.15,12.11 -1.20,12.80 -1.25,13.49 -1.31,13.61 -1.37,13.73 -1.39,13.81 -1.40,13.89 -1.44,13.96 -1.47,14.03 -1.52,14.09 -1.57,14.15 -1.63,14.20 -1.70,14.25 -1.77,14.28 -1.84,14.31 -1.92,14.33 -2.00,14.34 -2.08,14.33 -2.15,14.33 -2.23,14.30 -2.31,14.28 -2.37,14.24 -2.44,14.19 -2.49,14.14 -2.55,14.08 -2.59,14.01 -2.63,13.94 -2.65,13.87 -2.67,13.79 -2.68,13.71 -2.68,13.63 -2.62,13.46 -2.55,13.29 -2.48,13.22 -2.40,13.14 -2.31,13.10 -2.21,13.05 -2.11,13.04 -2.00,13.03 -1.90,13.05 -1.79,13.07 -1.70,13.12 -1.61,13.18 -1.54,13.26 -1.47,13.34 -1.43,13.44 -1.39,13.53 -1.38,13.64 -1.37,13.75 -1.40,13.85 -1.43,13.95 -1.49,14.04 -1.54,14.13 -1.63,14.19 -1.71,14.26 -1.81,14.29 -1.91,14.33 -2.02,14.33 -2.13,14.33 -2.23,14.30 -2.33,14.27 -2.41,14.20 -2.50,14.14 -2.56,14.05 -2.62,13.97 -2.65,13.86 -2.68,13.76 -2.67,13.66 -2.67,13.55 -2.63,13.45 -2.59,13.35 -2.53,13.27 -2.46,13.19 -2.37,13.13 -2.28,13.08 -2.17,13.05 -2.07,13.03 -1.97,13.04 -1.86,13.05 -1.76,13.09 -1.67,13.13 -1.59,13.21 -1.51,13.28 -1.46,13.37 -1.41,13.47 -1.39,13.57 -1.37,13.67 -1.39,13.78 -1.40,13.88 -1.39,13.81 -1.37,13.73 -1.39,13.81 -1.40,13.89 -1.44,13.96 -1.47,14.03 -1.52,14.09 -1.57,14.15 -1.63,14.20 -1.70,14.25 -1.77,14.28 -1.84,14.31 -1.92,14.33 -2.00,14.34 -2.08,14.33 -2.15,14.33 -2.23,14.30 -2.31,14.28 -2.37,14.24 -2.44,14.19 -2.49,14.14 -2.55,14.08 -2.59,14.01 -2.63,13.94 -2.65,13.87 -2.67,13.79 -2.68,13.71 -2.68,13.63 -3.01,13.48 -3.34,13.33 -3.29,12.68 -3.24,12.03 -3.21,11.26 -3.17,10.50 -3.13,9.59 -3.08,8.68 -3.06,7.77 -3.03,6.85 -3.02,5.96 -3.00,5.07 -2.96,4.33 -2.93,3.59 -2.87,3.05 -2.82,2.51 -2.58,1.76 -2.34,1.00 -1.89,0.47 -1.44,-0.05 -0.97,-0.33 -0.51,-0.60 -0.43,-0.66 -0.35,-0.71 -0.26,-0.74 -0.16,-0.77 -0.07,-0.78 0.02,-0.79 0.11,-0.78 0.21,-0.76 0.29,-0.73 0.38,-0.69 0.46,-0.63 0.54,-0.58 0.60,-0.50 0.66,-0.43 0.70,-0.34 0.75,-0.26 0.77,-0.16 0.79,-0.07 0.78,0.02 0.78,0.11 0.76,0.20 0.73,0.30 0.68,0.38 0.64,0.46 0.57,0.53 0.51,0.60 0.51,0.60 L 0.51,0.60 Z"/></g><g transform="translate(26.37380397483767 50.74583549777205) rotate(0 1.0726165771484375 5.145751953125)" stroke="none"><path fill="#000000" d="M 0.20,0.79 Q 0.20,0.79 -0.26,0.97 -0.73,1.15 -0.81,1.87 -0.89,2.59 -0.81,3.65 -0.72,4.72 -0.69,5.34 -0.65,5.96 -0.59,6.89 -0.54,7.82 -0.56,8.46 -0.59,9.10 -0.66,9.46 -0.72,9.82 -0.76,9.92 -0.80,10.02 -0.86,10.11 -0.92,10.20 -1.00,10.27 -1.07,10.34 -1.17,10.39 -1.26,10.44 -1.37,10.47 -1.47,10.50 -1.58,10.50 -1.68,10.50 -1.79,10.48 -1.89,10.45 -1.99,10.41 -2.08,10.36 -2.16,10.29 -2.24,10.22 -2.31,10.13 -2.37,10.04 -2.41,9.95 -2.45,9.85 -2.46,9.74 -2.48,9.63 -2.47,9.53 -2.45,9.42 -2.45,8.69 -2.44,7.96 -2.36,7.39 -2.29,6.82 -2.19,6.16 -2.08,5.51 -1.93,4.85 -1.78,4.20 -1.60,3.61 -1.42,3.02 -1.21,2.46 -1.01,1.90 -0.65,1.06 -0.29,0.22 0.05,-0.33 0.40,-0.89 1.07,-1.33 1.73,-1.76 2.34,-1.69 2.94,-1.62 3.63,-1.15 4.31,-0.69 4.65,-0.00 4.99,0.68 5.02,1.72 5.05,2.76 4.90,3.44 4.75,4.12 4.59,4.84 4.44,5.55 4.21,6.30 3.98,7.06 3.79,7.70 3.60,8.34 3.64,9.56 3.69,10.78 3.73,10.88 3.77,10.97 3.78,11.08 3.79,11.19 3.76,11.29 3.73,11.39 3.67,11.48 3.61,11.57 3.53,11.63 3.45,11.70 3.35,11.73 3.24,11.77 3.14,11.77 3.03,11.77 2.93,11.73 2.83,11.70 2.75,11.64 2.66,11.57 2.60,11.49 2.54,11.40 2.51,11.30 2.48,11.19 2.49,11.09 2.49,10.98 2.53,10.88 2.57,10.78 2.64,10.70 2.71,10.62 2.80,10.57 2.89,10.51 2.99,10.49 3.09,10.46 3.20,10.47 3.31,10.49 3.40,10.53 3.50,10.57 3.58,10.65 3.65,10.72 3.70,10.81 3.76,10.91 3.77,11.01 3.79,11.11 3.77,11.22 3.76,11.32 3.71,11.42 3.66,11.51 3.58,11.59 3.51,11.66 3.41,11.71 3.31,11.75 3.21,11.76 3.10,11.77 3.00,11.75 2.89,11.73 2.80,11.68 2.71,11.62 2.64,11.54 2.57,11.46 2.57,11.46 2.57,11.46 2.16,9.63 1.75,7.81 1.94,7.15 2.13,6.49 2.33,5.82 2.54,5.14 2.70,4.42 2.85,3.69 3.00,2.75 3.16,1.80 3.06,1.23 2.95,0.65 2.49,0.31 2.02,-0.03 1.65,0.43 1.28,0.90 0.93,1.69 0.58,2.49 0.38,3.01 0.19,3.52 0.03,4.05 -0.13,4.59 -0.27,5.18 -0.41,5.78 -0.58,6.92 -0.74,8.07 -0.73,8.94 -0.72,9.82 -0.76,9.92 -0.80,10.02 -0.86,10.11 -0.92,10.20 -1.00,10.27 -1.07,10.34 -1.17,10.39 -1.26,10.44 -1.37,10.47 -1.47,10.50 -1.58,10.50 -1.68,10.50 -1.79,10.48 -1.89,10.45 -1.99,10.41 -2.08,10.36 -2.16,10.29 -2.24,10.22 -2.31,10.13 -2.37,10.04 -2.41,9.95 -2.45,9.85 -2.46,9.74 -2.48,9.63 -2.47,9.53 -2.45,9.42 -2.44,9.36 -2.43,9.30 -2.41,8.62 -2.39,7.93 -2.45,7.00 -2.51,6.07 -2.54,5.48 -2.58,4.88 -2.67,3.81 -2.77,2.74 -2.84,2.06 -2.92,1.38 -2.63,0.70 -2.34,0.02 -1.77,-0.31 -1.20,-0.65 -0.70,-0.72 -0.20,-0.79 -0.10,-0.81 -0.00,-0.82 0.09,-0.81 0.18,-0.80 0.28,-0.76 0.37,-0.73 0.45,-0.67 0.54,-0.62 0.60,-0.54 0.67,-0.47 0.72,-0.38 0.76,-0.30 0.79,-0.20 0.81,-0.10 0.81,-0.00 0.81,0.09 0.79,0.18 0.77,0.28 0.72,0.37 0.68,0.46 0.61,0.53 0.55,0.61 0.47,0.66 0.39,0.72 0.29,0.76 0.20,0.79 0.20,0.79 L 0.20,0.79 Z"/></g><g transform="translate(106.38617122337283 19.25835533419783) rotate(0 -1.3407821655273438 6.128948211669922)" stroke="none"><path fill="#000000" d="M 0.47,0.67 Q 0.47,0.67 0.09,1.06 -0.29,1.46 -0.57,2.13 -0.84,2.80 -1.09,3.85 -1.33,4.89 -1.40,5.46 -1.47,6.02 -1.50,6.57 -1.53,7.13 -1.54,7.69 -1.55,8.25 -1.89,10.49 -2.22,12.73 -2.31,12.78 -2.41,12.83 -2.51,12.85 -2.61,12.88 -2.72,12.86 -2.82,12.85 -2.92,12.80 -3.02,12.75 -3.09,12.68 -3.17,12.61 -3.21,12.51 -3.26,12.42 -3.28,12.31 -3.29,12.20 -3.27,12.10 -3.25,12.00 -3.20,11.90 -3.15,11.81 -3.07,11.74 -2.99,11.67 -2.89,11.63 -2.80,11.58 -2.69,11.57 -2.59,11.56 -2.48,11.59 -2.38,11.61 -2.29,11.67 -2.20,11.73 -2.13,11.81 -2.07,11.89 -2.03,11.99 -1.99,12.09 -1.99,12.20 -1.98,12.30 -2.01,12.41 -2.05,12.51 -2.11,12.59 -2.17,12.68 -2.25,12.74 -2.34,12.81 -2.44,12.84 -2.54,12.87 -2.65,12.87 -2.76,12.86 -2.86,12.83 -2.96,12.79 -3.04,12.73 -3.12,12.66 -3.18,12.57 -3.24,12.48 -3.26,12.38 -3.29,12.28 -3.28,12.17 -3.27,12.06 -3.23,11.97 -3.19,11.87 -3.12,11.79 -3.05,11.71 -3.05,11.71 -3.05,11.71 -3.37,10.50 -3.68,9.30 -3.69,8.75 -3.71,8.20 -3.69,7.60 -3.68,7.01 -3.64,6.38 -3.60,5.75 -3.52,5.10 -3.43,4.44 -3.29,3.80 -3.15,3.16 -2.96,2.59 -2.78,2.01 -2.55,1.48 -2.31,0.94 -1.92,0.38 -1.52,-0.17 -1.00,-0.42 -0.47,-0.67 -0.39,-0.72 -0.30,-0.76 -0.20,-0.79 -0.11,-0.81 -0.01,-0.82 0.08,-0.82 0.18,-0.79 0.28,-0.77 0.37,-0.73 0.46,-0.68 0.53,-0.62 0.61,-0.55 0.66,-0.47 0.72,-0.39 0.76,-0.30 0.79,-0.20 0.81,-0.10 0.82,-0.01 0.81,0.08 0.80,0.18 0.77,0.28 0.73,0.37 0.68,0.45 0.62,0.53 0.55,0.60 0.47,0.67 0.47,0.67 L 0.47,0.67 Z"/></g><g transform="translate(97.98398006126345 55.291474535857986) rotate(0 4.724632263183594 6.192787170410156)" stroke="none"><path fill="#000000" d="M 0.71,0.31 Q 0.71,0.31 0.56,0.84 0.42,1.37 0.29,2.11 0.16,2.86 0.16,3.74 0.17,4.61 0.22,5.46 0.27,6.32 0.33,7.14 0.38,7.97 0.39,8.58 0.39,9.18 0.38,9.34 0.37,9.51 0.35,9.62 0.34,9.73 0.30,9.84 0.26,9.94 0.20,10.03 0.14,10.13 0.05,10.20 -0.02,10.28 -0.12,10.33 -0.22,10.38 -0.33,10.41 -0.44,10.44 -0.55,10.44 -0.66,10.44 -0.77,10.42 -0.88,10.39 -0.98,10.34 -1.08,10.29 -1.17,10.21 -1.25,10.14 -1.31,10.05 -1.38,9.96 -1.42,9.85 -1.46,9.75 -1.48,9.64 -1.49,9.52 -1.40,8.91 -1.30,8.30 -1.18,7.74 -1.06,7.18 -0.89,6.54 -0.71,5.90 -0.46,5.15 -0.21,4.40 0.07,3.77 0.36,3.15 0.64,2.58 0.92,2.02 1.21,1.53 1.49,1.05 2.05,0.47 2.60,-0.09 3.19,-0.28 3.78,-0.48 4.38,-0.33 4.97,-0.18 5.44,0.19 5.90,0.57 6.25,1.13 6.61,1.68 6.84,2.50 7.07,3.32 7.10,3.86 7.13,4.40 7.08,4.96 7.04,5.52 6.93,6.08 6.82,6.64 6.57,7.42 6.31,8.21 6.14,8.48 5.97,8.75 5.89,8.85 5.81,8.95 5.70,9.03 5.60,9.11 5.49,9.16 5.37,9.21 5.24,9.23 5.12,9.26 4.99,9.25 4.86,9.24 4.74,9.20 4.62,9.16 4.51,9.09 4.40,9.03 4.31,8.93 4.22,8.84 4.15,8.73 4.08,8.62 4.05,8.50 4.01,8.38 4.00,8.25 4.00,8.12 4.02,7.99 4.04,7.87 4.10,7.75 4.15,7.64 4.21,7.11 4.26,6.58 4.66,5.82 5.06,5.07 5.71,4.43 6.35,3.80 6.91,3.49 7.46,3.17 8.18,3.12 8.89,3.06 9.53,3.51 10.16,3.97 10.59,4.72 11.02,5.46 11.18,6.46 11.34,7.45 11.26,8.52 11.19,9.59 10.45,11.13 9.71,12.67 9.64,12.75 9.56,12.82 9.47,12.87 9.37,12.92 9.27,12.94 9.16,12.95 9.06,12.93 8.95,12.91 8.86,12.86 8.77,12.81 8.69,12.73 8.62,12.65 8.58,12.56 8.54,12.46 8.53,12.35 8.52,12.25 8.54,12.14 8.57,12.04 8.62,11.95 8.68,11.86 8.76,11.79 8.84,11.73 8.94,11.69 9.04,11.65 9.15,11.65 9.25,11.64 9.36,11.67 9.46,11.70 9.55,11.76 9.63,11.83 9.70,11.91 9.76,12.00 9.79,12.10 9.82,12.20 9.82,12.31 9.82,12.41 9.78,12.51 9.75,12.61 9.68,12.70 9.62,12.78 9.53,12.84 9.44,12.90 9.34,12.92 9.23,12.95 9.13,12.94 9.02,12.93 8.92,12.89 8.82,12.85 8.74,12.78 8.66,12.71 8.61,12.62 8.56,12.53 8.54,12.42 8.52,12.32 8.53,12.21 8.54,12.11 8.59,12.01 8.64,11.92 8.64,11.92 8.64,11.92 8.85,10.61 9.07,9.30 9.13,8.46 9.19,7.62 9.13,6.96 9.06,6.30 8.53,5.73 7.99,5.16 7.41,5.62 6.83,6.08 6.47,6.83 6.11,7.58 6.04,8.17 5.97,8.75 5.89,8.85 5.81,8.95 5.70,9.03 5.60,9.11 5.49,9.16 5.37,9.21 5.24,9.23 5.12,9.26 4.99,9.25 4.86,9.24 4.74,9.20 4.62,9.16 4.51,9.09 4.40,9.03 4.31,8.93 4.22,8.84 4.15,8.73 4.08,8.62 4.05,8.50 4.01,8.38 4.00,8.25 4.00,8.12 4.02,7.99 4.04,7.87 4.10,7.75 4.15,7.64 4.21,7.56 4.26,7.48 4.49,6.84 4.71,6.21 4.86,5.35 5.01,4.48 4.97,3.78 4.94,3.08 4.65,2.46 4.36,1.83 3.85,1.65 3.35,1.47 2.89,2.12 2.44,2.78 2.17,3.32 1.90,3.87 1.65,4.40 1.40,4.93 1.18,5.63 0.95,6.33 0.80,6.92 0.66,7.51 0.51,8.51 0.37,9.51 0.35,9.62 0.34,9.73 0.30,9.84 0.26,9.94 0.20,10.03 0.14,10.13 0.05,10.20 -0.02,10.28 -0.12,10.33 -0.22,10.38 -0.33,10.41 -0.44,10.44 -0.55,10.44 -0.66,10.44 -0.77,10.42 -0.88,10.39 -0.98,10.34 -1.08,10.29 -1.17,10.21 -1.25,10.14 -1.31,10.05 -1.38,9.96 -1.42,9.85 -1.46,9.75 -1.48,9.64 -1.49,9.52 -1.51,9.36 -1.53,9.20 -1.54,8.63 -1.55,8.05 -1.60,7.22 -1.65,6.39 -1.70,5.54 -1.75,4.68 -1.77,4.10 -1.80,3.53 -1.70,2.60 -1.59,1.67 -1.45,1.14 -1.30,0.62 -1.00,0.15 -0.71,-0.31 -0.66,-0.39 -0.61,-0.47 -0.55,-0.54 -0.48,-0.60 -0.40,-0.65 -0.32,-0.70 -0.23,-0.73 -0.14,-0.76 -0.05,-0.77 0.04,-0.77 0.13,-0.76 0.22,-0.74 0.31,-0.70 0.39,-0.66 0.47,-0.61 0.54,-0.55 0.60,-0.48 0.66,-0.40 0.70,-0.32 0.74,-0.23 0.75,-0.14 0.77,-0.05 0.77,0.04 0.76,0.13 0.73,0.22 0.71,0.31 0.71,0.31 L 0.71,0.31 Z"/></g><g transform="translate(102.63200557395876 100.46692009249861) rotate(0 -0.7023162841796875 7.3036651611328125)" stroke="none"><path fill="#000000" d="M 0.22,0.72 Q 0.22,0.72 -0.04,0.88 -0.32,1.05 -0.01,1.74 0.29,2.42 0.54,3.49 0.79,4.56 0.87,5.13 0.95,5.71 1.00,6.31 1.04,6.92 1.05,7.49 1.07,8.06 1.08,8.62 1.08,9.18 1.05,9.75 1.01,10.32 0.89,11.29 0.76,12.26 0.61,13.01 0.46,13.76 0.11,13.01 -0.23,12.26 -0.26,12.33 -0.28,12.41 -0.32,12.47 -0.37,12.54 -0.43,12.59 -0.48,12.65 -0.55,12.69 -0.62,12.72 -0.70,12.75 -0.77,12.77 -0.85,12.77 -0.93,12.77 -1.01,12.75 -1.09,12.74 -1.16,12.70 -1.23,12.67 -1.29,12.61 -1.35,12.56 -1.40,12.50 -1.44,12.44 -1.47,12.36 -1.50,12.29 -1.52,12.21 -1.53,12.13 -1.52,12.05 -1.51,11.98 -1.50,11.93 -1.49,11.89 -1.44,11.80 -1.38,11.71 -1.30,11.64 -1.23,11.56 -1.13,11.52 -1.03,11.48 -0.93,11.47 -0.82,11.46 -0.72,11.49 -0.61,11.51 -0.52,11.57 -0.43,11.63 -0.37,11.71 -0.30,11.79 -0.26,11.89 -0.23,11.99 -0.22,12.10 -0.22,12.20 -0.25,12.30 -0.28,12.41 -0.34,12.49 -0.40,12.58 -0.49,12.64 -0.58,12.70 -0.68,12.74 -0.78,12.77 -0.88,12.76 -0.99,12.76 -1.09,12.73 -1.19,12.69 -1.27,12.62 -1.36,12.56 -1.41,12.47 -1.47,12.38 -1.50,12.28 -1.52,12.17 -1.52,12.07 -1.51,11.96 -1.47,11.86 -1.42,11.77 -1.35,11.69 -1.28,11.61 -1.19,11.55 -1.10,11.50 -0.99,11.48 -0.89,11.46 -0.79,11.47 -0.68,11.49 -0.58,11.53 -0.49,11.58 -0.41,11.66 -0.34,11.73 -0.29,11.83 -0.24,11.92 -0.23,12.03 -0.21,12.13 -0.22,12.19 -0.23,12.26 -0.26,12.33 -0.28,12.41 -0.32,12.47 -0.37,12.54 -0.43,12.59 -0.48,12.65 -0.55,12.69 -0.62,12.72 -0.70,12.75 -0.77,12.77 -0.85,12.77 -0.93,12.77 -1.01,12.75 -1.09,12.74 -1.16,12.70 -1.23,12.67 -1.29,12.61 -1.35,12.56 -1.40,12.50 -1.44,12.44 -1.47,12.36 -1.50,12.29 -1.52,12.21 -1.53,12.13 -1.52,12.05 -1.51,11.98 -1.68,12.61 -1.84,13.25 -1.71,12.58 -1.58,11.92 -1.44,11.03 -1.30,10.15 -1.23,9.13 -1.16,8.11 -1.17,7.57 -1.18,7.04 -1.25,5.99 -1.33,4.94 -1.53,4.00 -1.73,3.05 -1.94,2.37 -2.15,1.69 -2.27,1.16 -2.40,0.63 -2.15,0.15 -1.90,-0.32 -1.39,-0.49 -0.87,-0.67 -0.55,-0.69 -0.22,-0.72 -0.13,-0.73 -0.04,-0.75 0.04,-0.74 0.13,-0.74 0.21,-0.71 0.30,-0.69 0.38,-0.64 0.46,-0.59 0.52,-0.53 0.59,-0.46 0.64,-0.39 0.68,-0.31 0.71,-0.22 0.74,-0.13 0.74,-0.04 0.75,0.04 0.73,0.13 0.72,0.22 0.68,0.30 0.64,0.38 0.59,0.46 0.53,0.53 0.46,0.58 0.39,0.64 0.31,0.68 0.22,0.72 0.22,0.72 L 0.22,0.72 Z"/></g><g transform="translate(179.19667232200564 10.958749010955643) rotate(0 -1.2130889892578125 7.316425323486328)" stroke="none"><path fill="#000000" d="M 0.86,0.52 Q 0.86,0.52 0.43,1.41 0.01,2.31 -0.23,2.94 -0.47,3.58 -0.62,4.11 -0.76,4.64 -0.94,5.43 -1.11,6.21 -1.05,7.07 -0.99,7.93 -0.79,8.88 -0.58,9.83 -0.23,12.08 0.12,14.33 0.12,14.43 0.13,14.54 0.10,14.64 0.07,14.74 0.01,14.83 -0.04,14.92 -0.13,14.98 -0.21,15.05 -0.32,15.08 -0.42,15.11 -0.52,15.11 -0.63,15.11 -0.73,15.07 -0.83,15.04 -0.91,14.97 -1.00,14.91 -1.06,14.82 -1.11,14.73 -1.14,14.63 -1.17,14.53 -1.16,14.42 -1.15,14.31 -1.11,14.22 -1.07,14.12 -1.00,14.04 -0.93,13.96 -0.84,13.90 -0.75,13.85 -0.65,13.83 -0.54,13.81 -0.44,13.82 -0.33,13.83 -0.24,13.88 -0.14,13.92 -0.06,14.00 0.00,14.07 0.05,14.17 0.10,14.26 0.12,14.37 0.13,14.47 0.11,14.57 0.10,14.68 0.04,14.77 -0.00,14.87 -0.07,14.94 -0.15,15.01 -0.25,15.05 -0.35,15.10 -0.45,15.11 -0.56,15.12 -0.66,15.09 -0.77,15.07 -0.86,15.01 -0.95,14.96 -1.01,14.88 -1.08,14.79 -1.12,14.69 -1.16,14.60 -1.16,14.60 -1.16,14.60 -1.73,12.97 -2.30,11.34 -2.62,10.37 -2.94,9.41 -3.20,8.48 -3.46,7.55 -3.49,6.65 -3.52,5.75 -3.32,4.86 -3.12,3.97 -2.93,3.32 -2.74,2.68 -2.40,1.85 -2.07,1.03 -1.46,0.25 -0.86,-0.52 -0.78,-0.62 -0.70,-0.71 -0.61,-0.79 -0.51,-0.86 -0.40,-0.91 -0.29,-0.96 -0.17,-0.98 -0.05,-1.00 0.06,-0.99 0.18,-0.99 0.30,-0.95 0.42,-0.91 0.52,-0.85 0.62,-0.79 0.71,-0.70 0.79,-0.61 0.86,-0.51 0.92,-0.40 0.95,-0.29 0.99,-0.17 1.00,-0.05 1.00,0.06 0.98,0.18 0.96,0.30 0.91,0.41 0.86,0.52 0.86,0.52 L 0.86,0.52 Z"/></g><g transform="translate(175.87664973899783 100.56906242648299) rotate(0 -0.025543212890625 5.962959289550781)" stroke="none"><path fill="#000000" d="M -0.36,0.70 Q -0.36,0.70 -0.66,0.67 -0.97,0.63 -0.36,0.37 0.24,0.10 0.32,0.64 0.41,1.18 0.51,1.80 0.60,2.42 0.70,3.14 0.80,3.87 0.87,4.53 0.94,5.19 1.00,6.06 1.06,6.94 1.11,7.71 1.17,8.49 1.23,10.18 1.29,11.87 1.35,11.96 1.41,12.05 1.44,12.15 1.46,12.26 1.46,12.36 1.45,12.47 1.41,12.57 1.37,12.67 1.31,12.75 1.24,12.83 1.15,12.88 1.05,12.94 0.95,12.96 0.85,12.98 0.74,12.97 0.64,12.96 0.54,12.91 0.44,12.87 0.37,12.80 0.29,12.72 0.24,12.63 0.19,12.53 0.17,12.43 0.15,12.33 0.17,12.22 0.19,12.12 0.24,12.02 0.29,11.93 0.37,11.85 0.44,11.78 0.54,11.74 0.64,11.69 0.74,11.68 0.85,11.67 0.95,11.69 1.06,11.72 1.15,11.77 1.24,11.83 1.31,11.91 1.37,11.99 1.41,12.09 1.45,12.19 1.46,12.29 1.46,12.40 1.44,12.50 1.41,12.60 1.35,12.69 1.29,12.78 1.20,12.84 1.12,12.91 1.02,12.94 0.92,12.97 0.81,12.97 0.70,12.97 0.60,12.94 0.50,12.91 0.42,12.84 0.33,12.78 0.33,12.78 0.33,12.78 -0.36,10.71 -1.07,8.65 -1.13,7.87 -1.18,7.09 -1.24,6.26 -1.30,5.44 -1.37,4.80 -1.43,4.16 -1.53,3.45 -1.62,2.73 -1.70,2.14 -1.77,1.55 -1.86,0.78 -1.95,0.01 -1.53,-0.58 -1.11,-1.17 -0.58,-1.17 -0.05,-1.16 0.15,-0.93 0.36,-0.70 0.43,-0.64 0.51,-0.59 0.58,-0.52 0.64,-0.45 0.69,-0.36 0.73,-0.28 0.75,-0.19 0.78,-0.10 0.78,-0.00 0.78,0.08 0.76,0.18 0.74,0.27 0.69,0.35 0.65,0.44 0.59,0.51 0.52,0.58 0.45,0.64 0.37,0.69 0.28,0.73 0.19,0.76 0.10,0.77 0.00,0.78 -0.08,0.77 -0.18,0.76 -0.27,0.73 -0.36,0.70 -0.36,0.70 L -0.36,0.70 Z"/></g><g transform="translate(172.0458544509119 140.71365471163924) rotate(0 4.3798828125 8.4783935546875)" stroke="none"><path fill="#000000" d="M 0.76,-0.13 Q 0.76,-0.13 0.95,0.21 1.15,0.56 1.36,1.59 1.58,2.61 1.67,3.15 1.77,3.70 1.86,4.51 1.96,5.31 2.03,6.17 2.09,7.02 2.14,7.88 2.19,8.73 2.21,9.60 2.23,10.46 2.24,11.29 2.26,12.12 2.27,12.91 2.27,13.70 2.24,14.43 2.20,15.17 2.15,15.71 2.10,16.24 1.96,16.91 1.82,17.58 1.77,17.65 1.71,17.73 1.65,17.87 1.59,18.00 1.50,18.12 1.41,18.24 1.29,18.33 1.17,18.42 1.04,18.48 0.90,18.54 0.76,18.57 0.61,18.59 0.46,18.58 0.31,18.57 0.17,18.53 0.03,18.49 -0.09,18.41 -0.21,18.33 -0.32,18.23 -0.42,18.12 -0.50,17.99 -0.58,17.87 -0.62,17.72 -0.66,17.58 -0.67,17.43 -0.68,17.29 -0.65,17.14 -0.63,16.99 -0.82,16.24 -1.01,15.49 -1.02,14.71 -1.03,13.93 -0.95,13.09 -0.87,12.25 -0.66,11.42 -0.44,10.58 -0.11,9.81 0.22,9.05 0.54,8.43 0.87,7.81 1.24,7.30 1.62,6.80 2.09,6.40 2.56,6.00 3.40,5.54 4.24,5.08 5.11,4.92 5.99,4.76 7.68,6.09 9.37,7.42 9.42,7.51 9.47,7.61 9.49,7.71 9.50,7.82 9.49,7.92 9.47,8.03 9.42,8.12 9.37,8.21 9.29,8.29 9.21,8.36 9.12,8.40 9.02,8.45 8.91,8.46 8.81,8.47 8.70,8.45 8.60,8.42 8.51,8.37 8.42,8.31 8.35,8.23 8.28,8.15 8.24,8.05 8.21,7.95 8.20,7.85 8.19,7.74 8.22,7.64 8.25,7.53 8.31,7.45 8.37,7.36 8.46,7.30 8.54,7.23 8.64,7.20 8.74,7.17 8.85,7.17 8.96,7.17 9.06,7.20 9.16,7.24 9.24,7.30 9.33,7.36 9.39,7.45 9.44,7.54 9.47,7.64 9.50,7.75 9.49,7.85 9.49,7.96 9.45,8.06 9.41,8.16 9.34,8.24 9.27,8.32 9.18,8.37 9.09,8.43 8.98,8.45 8.88,8.47 8.77,8.46 8.67,8.45 8.57,8.40 8.48,8.36 8.40,8.28 8.32,8.21 8.32,8.21 8.32,8.21 7.31,7.61 6.29,7.01 5.68,7.10 5.07,7.18 4.52,7.47 3.97,7.75 3.42,8.30 2.87,8.85 2.59,9.41 2.31,9.97 2.04,10.56 1.77,11.16 1.61,11.81 1.44,12.46 1.38,13.17 1.32,13.89 1.34,14.55 1.35,15.22 1.42,15.90 1.48,16.59 1.60,17.16 1.71,17.73 1.65,17.87 1.59,18.00 1.50,18.12 1.41,18.24 1.29,18.33 1.17,18.42 1.04,18.48 0.90,18.54 0.76,18.57 0.61,18.59 0.46,18.58 0.31,18.57 0.17,18.53 0.03,18.49 -0.09,18.41 -0.21,18.33 -0.32,18.23 -0.42,18.12 -0.50,17.99 -0.58,17.87 -0.62,17.72 -0.66,17.58 -0.67,17.44 -0.68,17.29 -0.65,17.14 -0.63,17.00 -0.53,16.79 -0.43,16.59 -0.30,15.81 -0.18,15.03 -0.13,14.37 -0.09,13.70 -0.09,12.92 -0.08,12.14 -0.09,11.33 -0.09,10.51 -0.10,9.68 -0.12,8.85 -0.15,8.02 -0.19,7.19 -0.25,6.37 -0.30,5.55 -0.37,4.80 -0.43,4.05 -0.51,3.51 -0.58,2.98 -0.73,1.95 -0.88,0.92 -0.82,0.53 -0.76,0.13 -0.76,0.04 -0.77,-0.05 -0.75,-0.14 -0.73,-0.23 -0.69,-0.32 -0.66,-0.40 -0.60,-0.47 -0.54,-0.55 -0.47,-0.60 -0.39,-0.66 -0.31,-0.70 -0.22,-0.74 -0.13,-0.75 -0.04,-0.77 0.05,-0.76 0.14,-0.76 0.23,-0.73 0.32,-0.70 0.40,-0.65 0.48,-0.60 0.54,-0.54 0.61,-0.47 0.66,-0.39 0.70,-0.31 0.73,-0.22 0.76,-0.13 0.76,-0.13 L 0.76,-0.13 Z"/></g><g transform="translate(254.10132014915408 17.011079028045486) rotate(0 0.6512298583984375 6.026802062988281)" stroke="none"><path fill="#000000" d="M 0.88,0.11 Q 0.88,0.11 0.84,0.63 0.81,1.16 0.89,1.91 0.96,2.66 1.14,3.59 1.31,4.52 1.42,5.13 1.52,5.74 1.61,6.39 1.70,7.04 1.78,7.66 1.86,8.28 1.94,8.86 2.02,9.44 2.25,10.22 2.48,10.99 2.48,11.07 2.48,11.15 2.47,11.23 2.45,11.30 2.41,11.37 2.38,11.44 2.33,11.50 2.27,11.56 2.21,11.61 2.14,11.65 2.07,11.68 2.00,11.71 1.92,11.72 1.84,11.73 1.76,11.73 1.68,11.72 1.61,11.69 1.53,11.66 1.47,11.62 1.40,11.57 1.35,11.52 1.30,11.46 1.26,11.39 1.22,11.32 1.20,11.24 1.18,11.16 1.20,11.01 1.21,10.86 1.26,10.77 1.31,10.67 1.39,10.60 1.47,10.53 1.57,10.49 1.66,10.44 1.77,10.43 1.88,10.42 1.98,10.45 2.08,10.47 2.17,10.53 2.26,10.58 2.33,10.66 2.40,10.75 2.44,10.84 2.48,10.94 2.48,11.05 2.48,11.16 2.45,11.26 2.42,11.36 2.36,11.45 2.30,11.53 2.22,11.60 2.13,11.66 2.03,11.69 1.93,11.73 1.82,11.72 1.72,11.72 1.62,11.69 1.52,11.65 1.43,11.59 1.35,11.52 1.29,11.43 1.23,11.34 1.21,11.24 1.18,11.14 1.19,11.03 1.19,10.93 1.23,10.83 1.27,10.73 1.34,10.65 1.41,10.57 1.51,10.52 1.60,10.46 1.70,10.44 1.81,10.42 1.91,10.43 2.02,10.45 2.11,10.49 2.21,10.54 2.28,10.61 2.36,10.69 2.41,10.78 2.46,10.88 2.47,10.98 2.49,11.09 2.49,11.04 2.48,10.99 2.48,11.07 2.48,11.15 2.47,11.23 2.45,11.30 2.41,11.37 2.38,11.44 2.33,11.50 2.27,11.56 2.21,11.61 2.14,11.65 2.07,11.68 2.00,11.71 1.92,11.72 1.84,11.73 1.76,11.73 1.68,11.72 1.61,11.69 1.53,11.66 1.47,11.62 1.40,11.57 1.35,11.52 1.30,11.46 1.26,11.39 1.22,11.32 1.20,11.24 1.18,11.16 0.61,10.44 0.03,9.71 -0.03,9.12 -0.11,8.54 -0.19,7.92 -0.27,7.31 -0.35,6.68 -0.43,6.06 -0.52,5.47 -0.62,4.88 -0.79,3.88 -0.96,2.88 -1.02,1.90 -1.08,0.92 -0.98,0.40 -0.88,-0.11 -0.85,-0.21 -0.82,-0.31 -0.77,-0.41 -0.72,-0.50 -0.65,-0.58 -0.58,-0.66 -0.49,-0.72 -0.40,-0.78 -0.30,-0.82 -0.20,-0.86 -0.10,-0.87 0.00,-0.88 0.11,-0.87 0.21,-0.86 0.31,-0.82 0.41,-0.78 0.50,-0.72 0.59,-0.66 0.66,-0.58 0.73,-0.50 0.78,-0.40 0.83,-0.31 0.85,-0.20 0.88,-0.10 0.88,0.00 0.88,0.11 0.88,0.11 L 0.88,0.11 Z"/></g><g transform="translate(249.14685237571658 56.312958910857986) rotate(0 4.5969085693359375 3.3070755004882812)" stroke="none"><path fill="#000000" d="M -0.66,0.44 Q -0.66,0.44 -0.84,0.34 -1.03,0.24 -1.08,0.13 -1.13,0.02 -1.16,-0.08 -1.19,-0.20 -1.19,-0.32 -1.18,-0.44 -1.15,-0.55 -1.12,-0.67 -1.07,-0.78 -1.01,-0.88 -0.93,-0.97 -0.85,-1.06 -0.75,-1.12 -0.65,-1.19 -0.53,-1.23 -0.42,-1.27 -0.30,-1.28 -0.18,-1.30 -0.07,-1.28 0.04,-1.26 0.15,-1.22 0.26,-1.17 0.36,-1.10 0.46,-1.04 0.54,-0.94 0.62,-0.85 0.98,-0.03 1.35,0.79 1.61,1.81 1.88,2.83 2.03,3.71 2.19,4.58 2.28,5.90 2.38,7.22 2.57,7.91 2.75,8.61 2.76,8.73 2.76,8.84 2.73,8.96 2.71,9.08 2.65,9.18 2.60,9.29 2.52,9.38 2.44,9.47 2.35,9.54 2.25,9.61 2.14,9.65 2.03,9.69 1.91,9.71 1.80,9.73 1.68,9.71 1.56,9.70 1.45,9.66 1.34,9.62 1.24,9.56 1.14,9.49 1.06,9.40 0.98,9.31 0.92,9.21 0.87,9.11 0.83,8.99 0.80,8.88 0.96,8.36 1.11,7.85 1.32,6.70 1.53,5.55 1.67,4.75 1.82,3.95 1.96,3.17 2.11,2.40 2.27,1.68 2.44,0.96 2.61,0.44 2.77,-0.07 3.22,-0.86 3.67,-1.65 4.40,-2.06 5.13,-2.47 7.24,-2.87 9.35,-3.28 9.45,-3.32 9.55,-3.36 9.65,-3.37 9.76,-3.37 9.86,-3.35 9.96,-3.32 10.05,-3.26 10.14,-3.20 10.21,-3.12 10.27,-3.03 10.31,-2.93 10.34,-2.83 10.34,-2.73 10.35,-2.62 10.31,-2.52 10.28,-2.42 10.22,-2.33 10.15,-2.25 10.07,-2.19 9.98,-2.13 9.88,-2.10 9.78,-2.07 9.67,-2.07 9.56,-2.08 9.46,-2.11 9.37,-2.15 9.28,-2.22 9.20,-2.29 9.15,-2.38 9.09,-2.47 9.07,-2.57 9.04,-2.68 9.05,-2.78 9.06,-2.89 9.10,-2.98 9.15,-3.08 9.22,-3.16 9.29,-3.24 9.39,-3.29 9.48,-3.34 9.58,-3.36 9.69,-3.38 9.79,-3.36 9.90,-3.34 9.99,-3.30 10.09,-3.25 10.16,-3.17 10.24,-3.09 10.28,-3.00 10.33,-2.90 10.34,-2.80 10.35,-2.69 10.33,-2.59 10.31,-2.48 10.26,-2.39 10.20,-2.30 10.12,-2.23 10.04,-2.16 10.04,-2.16 10.04,-2.16 8.21,-1.42 6.39,-0.67 5.64,-0.41 4.89,-0.14 4.58,0.62 4.27,1.39 4.12,2.06 3.96,2.73 3.82,3.50 3.69,4.27 3.56,5.06 3.43,5.85 3.30,6.63 3.18,7.42 2.97,8.01 2.75,8.61 2.76,8.73 2.76,8.84 2.73,8.96 2.71,9.08 2.65,9.18 2.60,9.29 2.52,9.38 2.44,9.47 2.35,9.54 2.25,9.61 2.14,9.65 2.03,9.69 1.91,9.71 1.80,9.73 1.68,9.71 1.56,9.70 1.45,9.66 1.34,9.62 1.24,9.56 1.14,9.49 1.06,9.40 0.98,9.32 0.92,9.21 0.87,9.11 0.83,8.99 0.80,8.88 0.69,8.80 0.58,8.73 0.47,8.05 0.35,7.36 0.27,6.15 0.18,4.93 0.05,4.13 -0.08,3.33 -0.29,2.44 -0.50,1.56 -0.77,0.90 -1.03,0.24 -1.08,0.13 -1.13,0.02 -1.16,-0.08 -1.19,-0.20 -1.19,-0.32 -1.18,-0.44 -1.15,-0.55 -1.12,-0.67 -1.07,-0.78 -1.01,-0.88 -0.93,-0.97 -0.85,-1.06 -0.75,-1.12 -0.65,-1.19 -0.54,-1.23 -0.42,-1.27 -0.30,-1.28 -0.18,-1.30 -0.07,-1.28 0.04,-1.26 0.15,-1.22 0.26,-1.17 0.36,-1.10 0.46,-1.04 0.54,-0.94 0.62,-0.85 0.64,-0.65 0.66,-0.44 0.70,-0.35 0.75,-0.27 0.77,-0.17 0.79,-0.08 0.79,0.01 0.79,0.10 0.76,0.20 0.74,0.29 0.69,0.38 0.65,0.46 0.58,0.53 0.52,0.60 0.44,0.66 0.36,0.71 0.26,0.74 0.17,0.78 0.08,0.79 -0.01,0.80 -0.10,0.78 -0.20,0.77 -0.29,0.73 -0.38,0.70 -0.46,0.64 -0.54,0.59 -0.60,0.51 -0.66,0.44 -0.66,0.44 L -0.66,0.44 Z"/></g><g transform="translate(247.30804622337283 106.08511467257674) rotate(0 -0.0000152587890625 6.9716796875)" stroke="none"><path fill="#000000" d="M 0.86,0.46 Q 0.86,0.46 0.78,0.81 0.71,1.17 0.89,1.91 1.07,2.64 1.18,3.16 1.29,3.69 1.39,4.27 1.50,4.85 1.61,5.50 1.73,6.16 1.79,6.88 1.85,7.60 1.88,8.33 1.91,9.06 1.90,9.73 1.90,10.39 1.54,12.10 1.18,13.81 1.17,13.92 1.16,14.03 1.12,14.12 1.07,14.22 1.00,14.30 0.93,14.38 0.84,14.43 0.74,14.48 0.64,14.50 0.53,14.52 0.43,14.50 0.32,14.48 0.23,14.44 0.14,14.39 0.06,14.31 -0.00,14.24 -0.05,14.14 -0.09,14.04 -0.11,13.94 -0.12,13.83 -0.10,13.73 -0.08,13.62 -0.02,13.53 0.02,13.44 0.10,13.37 0.18,13.30 0.28,13.26 0.38,13.22 0.48,13.21 0.59,13.21 0.69,13.23 0.79,13.26 0.88,13.32 0.97,13.38 1.04,13.46 1.10,13.54 1.14,13.64 1.17,13.74 1.17,13.85 1.18,13.96 1.14,14.06 1.11,14.16 1.05,14.24 0.98,14.33 0.90,14.39 0.81,14.45 0.71,14.48 0.61,14.51 0.50,14.51 0.39,14.50 0.29,14.46 0.19,14.43 0.11,14.36 0.03,14.29 -0.01,14.20 -0.07,14.11 -0.10,14.01 -0.12,13.90 -0.12,13.90 -0.12,13.90 -0.27,12.15 -0.42,10.41 -0.44,9.77 -0.45,9.14 -0.47,8.48 -0.50,7.81 -0.55,7.18 -0.61,6.55 -0.71,5.92 -0.81,5.30 -1.03,4.22 -1.25,3.14 -1.41,2.18 -1.57,1.22 -1.49,0.68 -1.42,0.14 -1.14,-0.15 -0.86,-0.46 -0.79,-0.55 -0.72,-0.65 -0.63,-0.73 -0.55,-0.80 -0.44,-0.86 -0.34,-0.91 -0.22,-0.94 -0.11,-0.97 0.00,-0.97 0.12,-0.97 0.23,-0.94 0.35,-0.91 0.45,-0.85 0.56,-0.80 0.64,-0.72 0.73,-0.64 0.80,-0.54 0.86,-0.44 0.91,-0.33 0.95,-0.22 0.96,-0.11 0.97,0.00 0.96,0.12 0.94,0.24 0.90,0.35 0.86,0.46 0.86,0.46 L 0.86,0.46 Z"/></g><g transform="translate(248.17636287376345 140.99456901827986) rotate(0 4.303253173828125 4.737190246582031)" stroke="none"><path fill="#000000" d="M -0.54,0.58 Q -0.54,0.58 -0.99,0.29 -1.44,-0.00 -1.84,-0.25 -2.24,-0.51 -2.33,-0.61 -2.42,-0.71 -2.48,-0.84 -2.55,-0.96 -2.58,-1.09 -2.61,-1.22 -2.60,-1.36 -2.60,-1.50 -2.57,-1.63 -2.53,-1.76 -2.47,-1.88 -2.40,-2.00 -2.31,-2.10 -2.22,-2.20 -2.10,-2.28 -1.99,-2.35 -1.86,-2.40 -1.73,-2.45 -1.60,-2.46 -1.46,-2.48 -1.32,-2.46 -1.19,-2.44 -1.06,-2.39 -0.94,-2.34 -0.82,-2.26 -0.71,-2.18 -0.60,-1.64 -0.49,-1.11 -0.11,-0.70 0.25,-0.30 0.74,0.66 1.23,1.62 1.47,2.25 1.70,2.89 1.89,3.61 2.09,4.33 2.25,5.04 2.41,5.75 2.53,6.46 2.65,7.17 2.75,7.80 2.84,8.43 2.96,9.26 3.08,10.08 3.10,10.26 3.12,10.45 3.12,10.59 3.12,10.73 3.09,10.86 3.06,10.99 2.99,11.12 2.93,11.24 2.84,11.34 2.75,11.45 2.64,11.53 2.53,11.61 2.40,11.66 2.27,11.71 2.13,11.72 1.99,11.74 1.86,11.73 1.72,11.71 1.59,11.66 1.46,11.62 1.35,11.54 1.23,11.46 1.14,11.36 1.05,11.26 0.98,11.13 0.92,11.01 0.89,10.88 0.85,10.75 0.93,10.08 1.00,9.41 1.15,8.32 1.29,7.23 1.40,6.62 1.51,6.01 1.70,5.36 1.88,4.72 2.09,4.14 2.29,3.56 2.57,2.99 2.84,2.41 3.11,1.94 3.39,1.46 3.70,1.03 4.01,0.60 4.70,-0.02 5.39,-0.65 7.74,-0.88 10.09,-1.12 10.19,-1.09 10.29,-1.07 10.38,-1.01 10.47,-0.95 10.53,-0.87 10.60,-0.78 10.64,-0.68 10.67,-0.58 10.67,-0.48 10.67,-0.37 10.64,-0.27 10.61,-0.17 10.54,-0.08 10.48,-0.00 10.39,0.05 10.31,0.11 10.21,0.14 10.10,0.17 10.00,0.17 9.89,0.17 9.79,0.13 9.69,0.09 9.61,0.02 9.53,-0.04 9.47,-0.13 9.42,-0.22 9.39,-0.32 9.37,-0.42 9.38,-0.53 9.39,-0.64 9.43,-0.73 9.48,-0.83 9.55,-0.91 9.62,-0.99 9.71,-1.04 9.81,-1.09 9.91,-1.11 10.02,-1.12 10.12,-1.11 10.23,-1.09 10.32,-1.04 10.41,-1.00 10.49,-0.92 10.56,-0.84 10.61,-0.75 10.65,-0.65 10.67,-0.55 10.68,-0.44 10.66,-0.34 10.64,-0.23 10.58,-0.14 10.53,-0.05 10.45,0.01 10.37,0.08 10.27,0.12 10.17,0.16 10.07,0.17 9.96,0.18 9.96,0.18 9.96,0.18 8.61,0.48 7.26,0.78 6.76,1.12 6.26,1.47 5.78,2.01 5.31,2.55 4.85,3.42 4.39,4.29 4.21,4.82 4.04,5.34 3.88,5.88 3.73,6.41 3.62,6.99 3.52,7.56 3.44,8.09 3.36,8.63 3.24,9.54 3.12,10.45 3.12,10.59 3.12,10.73 3.09,10.86 3.06,10.99 2.99,11.12 2.93,11.24 2.84,11.34 2.75,11.45 2.64,11.53 2.53,11.61 2.40,11.66 2.27,11.71 2.13,11.72 1.99,11.74 1.86,11.73 1.72,11.71 1.59,11.66 1.46,11.62 1.35,11.54 1.23,11.46 1.14,11.36 1.05,11.26 0.98,11.13 0.92,11.01 0.89,10.88 0.85,10.75 0.83,10.56 0.82,10.37 0.71,9.57 0.60,8.76 0.52,8.15 0.43,7.53 0.33,6.89 0.23,6.25 0.08,5.58 -0.06,4.91 -0.23,4.29 -0.40,3.67 -0.59,3.15 -0.79,2.62 -1.23,1.74 -1.66,0.86 -1.95,0.17 -2.24,-0.51 -2.33,-0.61 -2.42,-0.71 -2.48,-0.84 -2.55,-0.96 -2.58,-1.09 -2.61,-1.22 -2.60,-1.36 -2.60,-1.50 -2.57,-1.63 -2.53,-1.76 -2.47,-1.88 -2.40,-2.00 -2.31,-2.10 -2.22,-2.20 -2.10,-2.28 -1.99,-2.35 -1.86,-2.40 -1.73,-2.45 -1.60,-2.46 -1.46,-2.48 -1.32,-2.46 -1.19,-2.44 -1.06,-2.39 -0.94,-2.34 -0.82,-2.26 -0.71,-2.18 -0.41,-1.81 -0.11,-1.43 0.21,-1.01 0.54,-0.58 0.60,-0.51 0.67,-0.44 0.71,-0.35 0.75,-0.26 0.77,-0.17 0.79,-0.07 0.79,0.01 0.79,0.11 0.76,0.20 0.74,0.30 0.69,0.38 0.65,0.46 0.58,0.54 0.51,0.61 0.43,0.66 0.35,0.71 0.26,0.75 0.17,0.78 0.07,0.79 -0.01,0.80 -0.11,0.78 -0.20,0.77 -0.29,0.73 -0.38,0.70 -0.46,0.64 -0.54,0.58 -0.54,0.58 L -0.54,0.58 Z"/></g><g transform="translate(353.9060992018884 17.11322136202986) rotate(0 -0.9960174560546875 6.805694580078125)" stroke="none"><path fill="#000000" d="M 0.92,0.26 Q 0.92,0.26 0.67,1.30 0.41,2.34 0.26,3.17 0.11,4.01 0.01,4.77 -0.07,5.54 -0.18,6.26 -0.29,6.98 -0.40,7.64 -0.51,8.31 -0.61,8.95 -0.72,9.59 -0.78,10.13 -0.84,10.67 -0.84,11.86 -0.84,13.05 -0.76,13.13 -0.69,13.21 -0.65,13.31 -0.61,13.40 -0.59,13.51 -0.58,13.61 -0.61,13.72 -0.63,13.82 -0.69,13.91 -0.74,14.00 -0.83,14.07 -0.91,14.14 -1.01,14.18 -1.11,14.21 -1.21,14.22 -1.32,14.22 -1.42,14.19 -1.52,14.16 -1.61,14.10 -1.70,14.04 -1.76,13.96 -1.82,13.87 -1.86,13.77 -1.89,13.67 -1.89,13.56 -1.89,13.46 -1.85,13.36 -1.82,13.26 -1.75,13.17 -1.69,13.09 -1.60,13.03 -1.51,12.97 -1.41,12.95 -1.30,12.92 -1.20,12.93 -1.09,12.93 -0.99,12.97 -0.89,13.01 -0.81,13.08 -0.73,13.15 -0.68,13.24 -0.63,13.34 -0.61,13.44 -0.58,13.54 -0.60,13.65 -0.61,13.75 -0.65,13.85 -0.70,13.95 -0.77,14.02 -0.85,14.10 -0.94,14.15 -1.04,14.20 -1.14,14.21 -1.25,14.23 -1.35,14.21 -1.46,14.19 -1.55,14.14 -1.64,14.09 -1.64,14.09 -1.64,14.09 -2.29,12.26 -2.93,10.42 -2.86,9.83 -2.79,9.25 -2.68,8.60 -2.57,7.96 -2.46,7.31 -2.35,6.66 -2.24,5.97 -2.13,5.28 -2.03,4.46 -1.93,3.63 -1.76,2.70 -1.59,1.76 -1.25,0.75 -0.92,-0.26 -0.88,-0.37 -0.83,-0.47 -0.76,-0.57 -0.69,-0.66 -0.60,-0.73 -0.51,-0.81 -0.41,-0.86 -0.30,-0.91 -0.19,-0.93 -0.08,-0.95 0.03,-0.95 0.15,-0.95 0.26,-0.91 0.37,-0.88 0.47,-0.82 0.57,-0.77 0.65,-0.69 0.74,-0.61 0.80,-0.51 0.86,-0.41 0.90,-0.30 0.94,-0.19 0.95,-0.08 0.96,0.03 0.94,0.14 0.92,0.26 0.92,0.26 L 0.92,0.26 Z"/></g><g transform="translate(345.9125078932947 60.501069262420486) rotate(0 4.39263916015625 3.2815399169921875)" stroke="none"><path fill="#000000" d="M -0.33,0.77 Q -0.33,0.77 -0.59,0.80 -0.85,0.82 -0.24,0.44 0.35,0.05 0.51,0.58 0.66,1.10 0.76,2.23 0.86,3.37 0.87,4.02 0.89,4.66 0.88,5.28 0.88,5.90 0.87,6.45 0.86,7.01 0.85,7.14 0.83,7.27 0.78,7.40 0.74,7.52 0.66,7.63 0.59,7.74 0.49,7.83 0.39,7.92 0.27,7.98 0.15,8.04 0.03,8.07 -0.09,8.10 -0.23,8.10 -0.36,8.10 -0.49,8.07 -0.61,8.04 -0.73,7.98 -0.85,7.91 -0.95,7.83 -1.05,7.74 -1.12,7.63 -1.20,7.52 -1.24,7.40 -1.29,7.27 -1.31,7.14 -1.32,7.01 -1.09,6.38 -0.85,5.76 -0.63,5.10 -0.41,4.45 -0.11,3.67 0.17,2.89 0.92,1.63 1.66,0.37 2.30,-0.34 2.93,-1.06 3.49,-1.43 4.05,-1.80 4.62,-1.87 5.18,-1.94 5.69,-1.68 6.21,-1.43 6.59,-0.98 6.97,-0.52 7.26,-0.02 7.55,0.48 7.89,1.33 8.23,2.18 7.55,2.15 6.87,2.12 7.24,1.39 7.61,0.65 7.94,0.20 8.27,-0.24 8.36,-0.33 8.45,-0.42 8.55,-0.53 8.65,-0.64 8.77,-0.71 8.90,-0.79 9.04,-0.84 9.18,-0.89 9.32,-0.90 9.47,-0.91 9.61,-0.89 9.76,-0.87 9.89,-0.81 10.03,-0.76 10.15,-0.67 10.27,-0.58 10.36,-0.47 10.45,-0.35 10.52,-0.22 10.58,-0.09 10.61,0.04 10.64,0.19 10.64,0.33 10.63,0.48 10.59,0.62 10.55,0.76 10.48,0.89 10.41,1.02 10.50,1.69 10.59,2.36 10.27,3.74 9.95,5.11 10.01,5.20 10.08,5.28 10.11,5.38 10.15,5.48 10.15,5.59 10.15,5.69 10.12,5.80 10.08,5.90 10.02,5.98 9.96,6.07 9.87,6.13 9.78,6.19 9.68,6.22 9.58,6.25 9.47,6.24 9.36,6.24 9.27,6.20 9.17,6.16 9.08,6.09 9.00,6.03 8.95,5.93 8.89,5.84 8.87,5.74 8.84,5.64 8.85,5.53 8.86,5.43 8.91,5.33 8.95,5.23 9.02,5.15 9.10,5.08 9.19,5.03 9.28,4.97 9.39,4.96 9.49,4.94 9.60,4.95 9.70,4.97 9.80,5.02 9.89,5.07 9.96,5.14 10.04,5.22 10.08,5.32 10.13,5.41 10.14,5.52 10.16,5.62 10.13,5.73 10.11,5.83 10.06,5.92 10.00,6.01 9.92,6.08 9.84,6.15 9.75,6.19 9.65,6.23 9.54,6.24 9.43,6.25 9.33,6.22 9.23,6.19 9.14,6.13 9.05,6.08 9.05,6.08 9.05,6.08 8.63,4.08 8.20,2.09 8.25,1.55 8.30,1.00 8.37,0.28 8.45,-0.42 8.55,-0.53 8.65,-0.64 8.77,-0.71 8.90,-0.79 9.04,-0.84 9.18,-0.89 9.32,-0.90 9.47,-0.91 9.61,-0.89 9.76,-0.87 9.89,-0.81 10.03,-0.76 10.15,-0.67 10.27,-0.58 10.36,-0.47 10.45,-0.35 10.52,-0.22 10.58,-0.09 10.61,0.04 10.64,0.19 10.64,0.33 10.63,0.48 10.59,0.62 10.55,0.76 10.48,0.89 10.41,1.02 10.33,1.12 10.26,1.23 9.92,1.79 9.57,2.35 9.26,2.95 8.95,3.55 8.54,3.91 8.13,4.27 7.60,4.27 7.07,4.28 6.49,3.71 5.92,3.14 5.55,2.21 5.17,1.27 4.81,0.82 4.45,0.36 3.93,0.89 3.41,1.42 2.76,2.51 2.10,3.60 1.83,4.35 1.57,5.10 1.22,6.06 0.86,7.01 0.85,7.14 0.83,7.27 0.78,7.40 0.74,7.52 0.66,7.63 0.59,7.74 0.49,7.83 0.39,7.92 0.27,7.98 0.15,8.04 0.03,8.07 -0.09,8.10 -0.23,8.10 -0.36,8.10 -0.49,8.07 -0.61,8.04 -0.73,7.98 -0.85,7.91 -0.95,7.83 -1.05,7.74 -1.12,7.63 -1.20,7.52 -1.24,7.40 -1.29,7.27 -1.31,7.14 -1.32,7.01 -1.33,6.45 -1.34,5.90 -1.34,5.31 -1.34,4.72 -1.36,4.12 -1.38,3.52 -1.41,2.95 -1.45,2.39 -1.57,1.52 -1.68,0.64 -1.64,0.09 -1.61,-0.45 -0.82,-0.83 -0.02,-1.20 0.15,-0.99 0.33,-0.77 0.42,-0.72 0.51,-0.67 0.58,-0.60 0.65,-0.53 0.71,-0.44 0.76,-0.35 0.79,-0.26 0.82,-0.16 0.83,-0.06 0.84,0.03 0.82,0.13 0.81,0.24 0.77,0.33 0.72,0.42 0.66,0.50 0.60,0.58 0.52,0.65 0.44,0.71 0.35,0.76 0.26,0.80 0.16,0.82 0.06,0.84 -0.03,0.83 -0.14,0.83 -0.23,0.80 -0.33,0.77 -0.33,0.77 L -0.33,0.77 Z"/></g><g transform="translate(354.7743853347009 97.83657951632674) rotate(0 -1.3790740966796875 7.495185852050781)" stroke="none"><path fill="#000000" d="M 0.94,0.14 Q 0.94,0.14 0.96,0.83 0.98,1.53 0.93,2.11 0.89,2.69 0.85,3.35 0.80,4.01 0.76,4.70 0.71,5.40 0.66,6.13 0.61,6.86 0.53,7.60 0.46,8.33 0.36,9.06 0.26,9.78 0.13,10.49 0.00,11.19 -0.16,11.84 -0.33,12.50 -1.48,14.03 -2.64,15.56 -2.74,15.55 -2.85,15.55 -2.95,15.52 -3.05,15.48 -3.13,15.41 -3.22,15.35 -3.27,15.26 -3.33,15.17 -3.36,15.07 -3.39,14.97 -3.38,14.86 -3.37,14.75 -3.33,14.66 -3.29,14.56 -3.22,14.48 -3.15,14.40 -3.06,14.34 -2.96,14.29 -2.86,14.27 -2.76,14.25 -2.65,14.26 -2.54,14.28 -2.45,14.32 -2.35,14.37 -2.28,14.44 -2.20,14.52 -2.15,14.61 -2.11,14.71 -2.09,14.81 -2.07,14.92 -2.09,15.02 -2.11,15.13 -2.16,15.22 -2.22,15.31 -2.29,15.38 -2.37,15.46 -2.47,15.50 -2.57,15.54 -2.67,15.55 -2.78,15.56 -2.88,15.54 -2.98,15.51 -3.08,15.45 -3.17,15.40 -3.23,15.32 -3.30,15.23 -3.34,15.13 -3.37,15.04 -3.38,14.93 -3.38,14.82 -3.35,14.72 -3.32,14.62 -3.26,14.53 -3.20,14.45 -3.11,14.38 -3.03,14.32 -2.93,14.29 -2.83,14.26 -2.83,14.26 -2.83,14.26 -2.80,13.06 -2.77,11.87 -2.62,11.29 -2.48,10.71 -2.35,10.07 -2.22,9.43 -2.12,8.75 -2.02,8.07 -1.94,7.36 -1.86,6.66 -1.80,5.94 -1.74,5.21 -1.68,4.52 -1.62,3.83 -1.56,3.16 -1.50,2.50 -1.45,1.83 -1.39,1.17 -1.17,0.51 -0.94,-0.14 -0.91,-0.25 -0.88,-0.36 -0.82,-0.46 -0.77,-0.56 -0.69,-0.65 -0.61,-0.73 -0.51,-0.79 -0.41,-0.85 -0.30,-0.89 -0.20,-0.93 -0.08,-0.94 0.02,-0.95 0.14,-0.93 0.25,-0.92 0.36,-0.87 0.46,-0.83 0.56,-0.76 0.65,-0.69 0.72,-0.60 0.80,-0.51 0.85,-0.41 0.90,-0.31 0.92,-0.19 0.95,-0.08 0.94,0.02 0.94,0.14 0.94,0.14 L 0.94,0.14 Z"/></g><g transform="translate(342.7712725417322 142.75665397921736) rotate(0 7.3167877197265625 5.477745056152344)" stroke="none"><path fill="#000000" d="M 0.76,0.16 Q 0.76,0.16 0.85,0.46 0.93,0.75 1.19,1.61 1.45,2.46 1.68,3.45 1.91,4.45 2.01,4.99 2.11,5.53 2.18,6.10 2.24,6.68 2.28,7.21 2.31,7.75 2.30,8.71 2.29,9.66 2.24,10.21 2.19,10.75 2.17,10.86 2.16,10.96 2.12,11.10 2.09,11.25 2.02,11.38 1.96,11.51 1.86,11.62 1.76,11.73 1.64,11.81 1.52,11.90 1.39,11.95 1.25,12.01 1.11,12.03 0.96,12.04 0.82,12.03 0.67,12.01 0.53,11.96 0.39,11.91 0.27,11.83 0.15,11.75 0.05,11.64 -0.04,11.53 -0.11,11.40 -0.18,11.27 -0.21,11.13 -0.25,10.99 -0.25,10.84 -0.25,10.70 -0.11,9.75 0.03,8.81 0.17,8.15 0.30,7.50 0.53,6.75 0.75,6.01 0.94,5.41 1.13,4.80 1.46,4.07 1.79,3.34 2.08,2.79 2.38,2.23 2.97,1.45 3.56,0.66 4.27,0.24 4.99,-0.17 5.67,-0.29 6.35,-0.42 7.11,-0.19 7.88,0.03 8.45,0.69 9.02,1.35 9.32,2.32 9.63,3.29 9.71,3.86 9.80,4.43 9.84,5.00 9.88,5.56 9.91,6.43 9.94,7.29 9.94,7.63 9.94,7.96 9.91,8.11 9.89,8.26 9.83,8.39 9.77,8.53 9.69,8.65 9.60,8.77 9.48,8.86 9.37,8.95 9.23,9.02 9.10,9.08 8.96,9.11 8.81,9.14 8.66,9.14 8.51,9.13 8.37,9.09 8.23,9.05 8.10,8.98 7.97,8.90 7.87,8.80 7.76,8.70 7.68,8.57 7.60,8.45 7.55,8.31 7.51,8.17 7.49,8.02 7.48,7.87 7.51,7.27 7.55,6.67 7.66,6.13 7.77,5.59 7.96,5.02 8.15,4.44 8.55,3.54 8.96,2.64 9.54,1.98 10.12,1.33 10.89,1.07 11.67,0.80 12.59,1.09 13.51,1.38 14.10,1.99 14.69,2.59 14.92,3.10 15.14,3.61 15.45,5.56 15.76,7.50 15.77,7.58 15.78,7.66 15.78,7.74 15.77,7.82 15.74,7.89 15.71,7.97 15.67,8.03 15.62,8.10 15.56,8.15 15.51,8.21 15.44,8.24 15.37,8.28 15.29,8.30 15.21,8.32 15.13,8.32 15.05,8.32 14.98,8.30 14.90,8.28 14.83,8.25 14.76,8.21 14.70,8.16 14.64,8.11 14.59,8.04 14.55,7.98 14.52,7.91 14.49,7.83 14.71,7.44 14.94,7.04 15.04,7.03 15.15,7.01 15.25,7.03 15.35,7.05 15.45,7.10 15.54,7.16 15.61,7.24 15.68,7.32 15.72,7.41 15.76,7.51 15.77,7.62 15.78,7.72 15.76,7.83 15.73,7.93 15.67,8.02 15.62,8.11 15.53,8.17 15.45,8.24 15.35,8.28 15.25,8.31 15.14,8.32 15.04,8.32 14.94,8.29 14.83,8.26 14.75,8.19 14.66,8.13 14.60,8.05 14.54,7.96 14.51,7.86 14.48,7.76 14.48,7.65 14.48,7.54 14.52,7.44 14.56,7.34 14.62,7.26 14.69,7.18 14.78,7.12 14.87,7.07 14.97,7.04 15.07,7.01 15.18,7.02 15.29,7.03 15.38,7.07 15.48,7.12 15.56,7.19 15.64,7.26 15.69,7.35 15.74,7.44 15.76,7.55 15.78,7.65 15.77,7.76 15.75,7.86 15.71,7.96 15.66,8.05 15.58,8.13 15.51,8.20 15.64,7.85 15.76,7.50 15.77,7.58 15.78,7.66 15.78,7.74 15.77,7.82 15.74,7.89 15.71,7.97 15.67,8.03 15.62,8.10 15.56,8.15 15.51,8.21 15.44,8.24 15.37,8.28 15.29,8.30 15.21,8.32 15.13,8.32 15.05,8.32 14.98,8.30 14.90,8.28 14.83,8.25 14.76,8.21 14.70,8.16 14.64,8.11 14.59,8.04 14.55,7.98 14.52,7.91 14.49,7.83 13.85,6.46 13.21,5.09 13.07,4.56 12.93,4.02 12.46,3.55 11.99,3.09 11.52,3.40 11.05,3.71 10.73,4.44 10.41,5.17 10.19,6.02 9.98,6.88 9.96,7.42 9.94,7.96 9.91,8.11 9.89,8.26 9.83,8.39 9.77,8.53 9.69,8.65 9.60,8.77 9.48,8.86 9.37,8.95 9.23,9.02 9.10,9.08 8.96,9.11 8.81,9.14 8.66,9.14 8.52,9.13 8.37,9.09 8.23,9.05 8.10,8.98 7.97,8.90 7.87,8.80 7.76,8.70 7.68,8.57 7.60,8.45 7.55,8.31 7.51,8.17 7.49,8.02 7.48,7.87 7.49,7.77 7.49,7.67 7.52,7.13 7.55,6.58 7.52,5.66 7.50,4.75 7.36,3.91 7.22,3.08 6.86,2.47 6.50,1.86 5.84,2.06 5.18,2.25 4.80,2.77 4.41,3.29 4.16,3.79 3.91,4.29 3.65,4.89 3.38,5.49 3.21,6.08 3.03,6.67 2.85,7.32 2.67,7.98 2.55,8.61 2.42,9.24 2.29,10.10 2.16,10.96 2.12,11.10 2.09,11.25 2.02,11.38 1.96,11.51 1.86,11.62 1.76,11.73 1.64,11.81 1.52,11.90 1.39,11.95 1.25,12.01 1.11,12.03 0.96,12.04 0.82,12.03 0.67,12.01 0.53,11.96 0.39,11.91 0.27,11.83 0.15,11.75 0.05,11.64 -0.04,11.53 -0.11,11.40 -0.18,11.27 -0.21,11.13 -0.25,10.99 -0.25,10.84 -0.25,10.70 -0.25,10.68 -0.25,10.66 -0.18,10.08 -0.11,9.49 -0.07,8.67 -0.03,7.85 -0.07,6.87 -0.11,5.89 -0.26,4.92 -0.41,3.95 -0.65,3.07 -0.89,2.19 -1.03,1.27 -1.17,0.35 -0.97,0.09 -0.76,-0.16 -0.73,-0.25 -0.70,-0.34 -0.65,-0.42 -0.60,-0.50 -0.53,-0.56 -0.46,-0.63 -0.38,-0.67 -0.30,-0.72 -0.21,-0.74 -0.12,-0.77 -0.02,-0.77 0.06,-0.78 0.16,-0.76 0.25,-0.74 0.33,-0.70 0.42,-0.66 0.49,-0.60 0.56,-0.54 0.62,-0.46 0.68,-0.38 0.71,-0.30 0.75,-0.21 0.76,-0.12 0.78,-0.02 0.77,0.06 0.76,0.16 0.76,0.16 L 0.76,0.16 Z"/></g><g transform="translate(432.64148128196655 20.7650615719908) rotate(0 -0.9704437255859375 4.315803527832031)" stroke="none"><path fill="#000000" d="M 0.81,0.41 Q 0.81,0.41 0.50,1.21 0.18,2.01 -0.01,2.58 -0.20,3.14 -0.39,4.16 -0.58,5.18 -0.91,6.85 -1.23,8.53 -1.24,8.64 -1.25,8.74 -1.30,8.84 -1.34,8.94 -1.41,9.01 -1.49,9.09 -1.58,9.14 -1.67,9.19 -1.78,9.21 -1.88,9.23 -1.99,9.21 -2.09,9.20 -2.19,9.15 -2.28,9.10 -2.35,9.02 -2.43,8.95 -2.47,8.85 -2.52,8.75 -2.53,8.65 -2.54,8.54 -2.52,8.44 -2.50,8.34 -2.45,8.24 -2.39,8.15 -2.31,8.08 -2.23,8.01 -2.13,7.97 -2.04,7.93 -1.93,7.93 -1.82,7.92 -1.72,7.95 -1.62,7.97 -1.53,8.03 -1.44,8.09 -1.38,8.17 -1.31,8.26 -1.28,8.36 -1.24,8.46 -1.24,8.57 -1.24,8.67 -1.27,8.77 -1.30,8.87 -1.37,8.96 -1.43,9.04 -1.52,9.11 -1.61,9.17 -1.71,9.20 -1.81,9.22 -1.92,9.22 -2.02,9.22 -2.12,9.18 -2.22,9.14 -2.30,9.07 -2.38,9.00 -2.44,8.91 -2.50,8.82 -2.52,8.72 -2.54,8.61 -2.54,8.62 -2.54,8.62 -2.60,6.71 -2.66,4.81 -2.57,4.28 -2.47,3.74 -2.34,3.10 -2.21,2.46 -1.97,1.75 -1.73,1.04 -1.27,0.31 -0.81,-0.41 -0.75,-0.50 -0.69,-0.60 -0.61,-0.67 -0.53,-0.75 -0.43,-0.80 -0.33,-0.85 -0.22,-0.88 -0.12,-0.91 -0.01,-0.91 0.09,-0.91 0.20,-0.88 0.31,-0.86 0.41,-0.81 0.51,-0.76 0.59,-0.69 0.68,-0.61 0.74,-0.52 0.80,-0.43 0.84,-0.33 0.89,-0.23 0.90,-0.12 0.91,-0.01 0.90,0.09 0.89,0.20 0.85,0.31 0.81,0.41 0.81,0.41 L 0.81,0.41 Z"/></g><g transform="translate(422.8346880690759 54.474274828826736) rotate(0 2.7964935302734375 5.235145568847656)" stroke="none"><path fill="#000000" d="M 0.75,-0.24 Q 0.75,-0.24 0.97,0.15 1.19,0.55 1.32,1.36 1.46,2.18 1.47,3.26 1.48,4.34 1.44,4.95 1.41,5.56 1.33,6.28 1.25,7.00 1.14,7.57 1.03,8.13 0.87,8.90 0.70,9.67 0.66,9.78 0.62,9.90 0.57,10.02 0.53,10.14 0.46,10.25 0.38,10.36 0.29,10.45 0.19,10.53 0.08,10.60 -0.03,10.66 -0.15,10.69 -0.28,10.72 -0.41,10.73 -0.54,10.73 -0.67,10.70 -0.79,10.67 -0.91,10.61 -1.02,10.55 -1.12,10.47 -1.22,10.38 -1.30,10.28 -1.37,10.17 -1.42,10.05 -1.47,9.93 -1.49,9.80 -1.50,9.67 -1.49,9.54 -1.48,9.41 -1.28,8.77 -1.08,8.13 -0.88,7.61 -0.68,7.09 -0.45,6.51 -0.23,5.94 0.03,5.33 0.29,4.72 0.51,4.21 0.74,3.70 1.25,2.96 1.77,2.21 2.39,1.76 3.00,1.31 3.67,1.14 4.33,0.97 5.17,1.19 6.01,1.42 6.52,2.57 7.02,3.73 7.07,4.33 7.12,4.93 7.10,5.54 7.07,6.16 7.02,6.69 6.96,7.22 6.49,8.67 6.02,10.12 6.05,10.22 6.09,10.32 6.09,10.42 6.09,10.53 6.06,10.63 6.03,10.73 5.97,10.82 5.91,10.90 5.82,10.96 5.73,11.03 5.63,11.06 5.53,11.09 5.42,11.08 5.32,11.08 5.22,11.04 5.12,11.01 5.04,10.94 4.95,10.87 4.90,10.78 4.84,10.69 4.81,10.59 4.79,10.49 4.80,10.38 4.81,10.28 4.85,10.18 4.89,10.08 4.96,10.00 5.03,9.92 5.13,9.87 5.22,9.82 5.32,9.80 5.43,9.78 5.53,9.79 5.64,9.81 5.73,9.86 5.83,9.90 5.90,9.98 5.98,10.06 6.03,10.15 6.07,10.25 6.09,10.35 6.10,10.46 6.08,10.56 6.06,10.67 6.01,10.76 5.95,10.85 5.88,10.92 5.80,10.99 5.70,11.03 5.60,11.07 5.49,11.08 5.39,11.09 5.29,11.07 5.18,11.04 5.09,10.98 5.00,10.92 4.94,10.84 4.87,10.76 4.87,10.76 4.87,10.76 4.83,8.38 4.78,6.00 4.83,5.03 4.87,4.05 4.55,3.46 4.23,2.87 3.69,3.10 3.15,3.33 2.74,3.87 2.33,4.41 2.11,4.91 1.89,5.40 1.67,5.95 1.44,6.50 1.16,7.57 0.87,8.64 0.74,9.27 0.62,9.90 0.57,10.02 0.53,10.14 0.46,10.25 0.38,10.36 0.29,10.45 0.19,10.53 0.08,10.60 -0.03,10.66 -0.15,10.69 -0.28,10.72 -0.41,10.73 -0.54,10.73 -0.67,10.70 -0.79,10.67 -0.91,10.61 -1.02,10.55 -1.12,10.47 -1.22,10.38 -1.30,10.28 -1.37,10.17 -1.42,10.05 -1.47,9.93 -1.49,9.80 -1.50,9.67 -1.49,9.54 -1.48,9.41 -1.37,9.00 -1.27,8.58 -1.06,7.64 -0.85,6.70 -0.74,6.05 -0.62,5.41 -0.57,4.85 -0.51,4.28 -0.51,3.33 -0.50,2.38 -0.57,1.76 -0.64,1.15 -0.69,0.69 -0.75,0.24 -0.76,0.15 -0.78,0.05 -0.78,-0.03 -0.77,-0.13 -0.75,-0.22 -0.72,-0.31 -0.67,-0.39 -0.62,-0.47 -0.56,-0.54 -0.49,-0.61 -0.41,-0.66 -0.33,-0.71 -0.24,-0.74 -0.15,-0.77 -0.05,-0.78 0.03,-0.78 0.13,-0.77 0.22,-0.75 0.31,-0.72 0.39,-0.68 0.47,-0.62 0.55,-0.56 0.61,-0.49 0.67,-0.41 0.71,-0.33 0.75,-0.24 0.75,-0.24 L 0.75,-0.24 Z"/></g><g transform="translate(425.46521175071655 107.46414299288924) rotate(0 -0.715087890625 6.920600891113281)" stroke="none"><path fill="#000000" d="M 0.99,0.38 Q 0.99,0.38 0.95,0.82 0.90,1.26 0.88,1.86 0.85,2.46 0.86,3.43 0.86,4.40 0.87,5.00 0.87,5.61 0.85,6.27 0.83,6.92 0.77,7.63 0.71,8.34 0.62,9.06 0.53,9.78 0.39,10.44 0.25,11.10 0.19,12.14 0.13,13.18 0.22,13.24 0.31,13.29 0.37,13.38 0.44,13.46 0.47,13.56 0.51,13.66 0.51,13.77 0.51,13.87 0.48,13.98 0.45,14.08 0.38,14.16 0.32,14.25 0.23,14.31 0.15,14.37 0.04,14.40 -0.05,14.43 -0.15,14.42 -0.26,14.42 -0.36,14.38 -0.46,14.34 -0.54,14.28 -0.62,14.21 -0.68,14.12 -0.73,14.03 -0.76,13.93 -0.78,13.82 -0.77,13.72 -0.76,13.61 -0.72,13.51 -0.68,13.42 -0.60,13.34 -0.53,13.26 -0.44,13.21 -0.35,13.16 -0.24,13.14 -0.14,13.12 -0.03,13.14 0.06,13.15 0.16,13.20 0.25,13.25 0.33,13.33 0.40,13.40 0.45,13.50 0.49,13.59 0.51,13.70 0.52,13.80 0.50,13.91 0.48,14.01 0.42,14.10 0.37,14.20 0.29,14.27 0.21,14.34 0.11,14.38 0.01,14.42 -0.08,14.42 -0.19,14.43 -0.29,14.40 -0.39,14.38 -0.39,14.38 -0.39,14.38 -1.41,12.46 -2.43,10.54 -2.32,9.98 -2.20,9.42 -2.11,8.76 -2.02,8.10 -1.96,7.47 -1.91,6.85 -1.89,6.21 -1.87,5.58 -1.85,4.46 -1.83,3.34 -1.83,2.59 -1.82,1.83 -1.67,1.07 -1.52,0.32 -1.26,-0.03 -0.99,-0.38 -0.93,-0.50 -0.87,-0.61 -0.78,-0.71 -0.70,-0.80 -0.59,-0.87 -0.48,-0.95 -0.36,-0.99 -0.24,-1.04 -0.11,-1.05 0.00,-1.07 0.13,-1.05 0.26,-1.03 0.38,-0.99 0.50,-0.94 0.61,-0.86 0.71,-0.79 0.80,-0.69 0.88,-0.60 0.94,-0.48 1.00,-0.37 1.03,-0.24 1.06,-0.11 1.06,0.00 1.06,0.13 1.02,0.26 0.99,0.38 0.99,0.38 L 0.99,0.38 Z"/></g><g transform="translate(420.07653987571655 146.81709404269392) rotate(0 1.4301605224609375 5.618194580078125)" stroke="none"><path fill="#000000" d="M 0.79,0.39 Q 0.79,0.39 0.80,0.83 0.81,1.27 0.77,2.26 0.73,3.25 0.69,3.82 0.66,4.40 0.58,5.03 0.49,5.66 0.39,6.29 0.28,6.93 0.16,7.56 0.05,8.20 -0.05,8.76 -0.16,9.32 -0.32,10.06 -0.48,10.80 -0.61,11.12 -0.74,11.43 -0.83,11.58 -0.92,11.73 -1.04,11.85 -1.16,11.97 -1.31,12.06 -1.46,12.15 -1.62,12.20 -1.78,12.25 -1.96,12.27 -2.13,12.28 -2.30,12.25 -2.47,12.22 -2.62,12.15 -2.78,12.08 -2.92,11.97 -3.05,11.86 -3.16,11.73 -3.27,11.59 -3.34,11.44 -3.41,11.28 -3.44,11.11 -3.47,10.94 -3.46,10.77 -3.45,10.60 -3.40,10.44 -3.35,10.27 -3.35,9.72 -3.35,9.18 -3.25,8.63 -3.16,8.08 -3.03,7.50 -2.91,6.93 -2.76,6.35 -2.61,5.78 -2.42,5.22 -2.22,4.65 -1.97,4.10 -1.71,3.55 -1.22,2.67 -0.72,1.80 -0.04,1.07 0.63,0.33 1.40,-0.06 2.17,-0.46 2.90,-0.52 3.64,-0.59 4.50,-0.11 5.36,0.35 5.75,1.22 6.14,2.08 6.25,3.16 6.35,4.24 6.33,4.91 6.32,5.57 6.24,6.32 6.17,7.07 5.55,8.86 4.93,10.66 4.92,10.74 4.90,10.82 4.86,10.89 4.83,10.96 4.77,11.02 4.72,11.08 4.66,11.12 4.59,11.17 4.52,11.20 4.45,11.23 4.37,11.24 4.29,11.25 4.21,11.24 4.13,11.23 4.06,11.20 3.98,11.18 3.92,11.13 3.85,11.09 3.80,11.03 3.74,10.97 3.71,10.90 3.67,10.83 3.65,10.76 3.63,10.68 3.63,10.60 3.63,10.52 3.66,10.42 3.68,10.32 3.74,10.23 3.80,10.14 3.89,10.08 3.97,10.01 4.07,9.98 4.17,9.94 4.28,9.94 4.39,9.94 4.49,9.98 4.59,10.01 4.67,10.07 4.76,10.14 4.82,10.23 4.88,10.31 4.90,10.42 4.93,10.52 4.93,10.63 4.92,10.73 4.88,10.83 4.84,10.93 4.77,11.01 4.71,11.09 4.61,11.15 4.52,11.20 4.42,11.22 4.32,11.25 4.21,11.24 4.10,11.22 4.01,11.18 3.91,11.13 3.83,11.06 3.76,10.99 3.71,10.89 3.66,10.80 3.64,10.70 3.62,10.59 3.64,10.49 3.66,10.38 3.71,10.29 3.76,10.19 3.83,10.12 3.91,10.05 4.01,10.00 4.10,9.96 4.21,9.95 4.32,9.94 4.42,9.96 4.52,9.98 4.61,10.04 4.71,10.09 4.77,10.17 4.84,10.25 4.88,10.35 4.92,10.45 4.93,10.56 4.93,10.66 4.93,10.66 4.93,10.66 4.92,10.74 4.90,10.82 4.86,10.89 4.83,10.96 4.77,11.02 4.72,11.08 4.66,11.12 4.59,11.17 4.52,11.20 4.45,11.23 4.37,11.24 4.29,11.25 4.21,11.24 4.13,11.23 4.06,11.20 3.98,11.18 3.92,11.13 3.85,11.09 3.80,11.03 3.74,10.97 3.71,10.90 3.67,10.83 3.65,10.76 3.63,10.68 3.63,10.60 3.63,10.52 3.46,8.64 3.29,6.76 3.36,6.12 3.44,5.48 3.44,4.46 3.45,3.44 3.45,2.81 3.46,2.19 2.94,2.32 2.42,2.45 2.02,2.85 1.63,3.25 1.20,3.99 0.78,4.73 0.42,5.59 0.06,6.46 -0.17,7.50 -0.41,8.55 -0.52,9.37 -0.64,10.19 -0.69,10.81 -0.74,11.43 -0.83,11.58 -0.92,11.73 -1.04,11.85 -1.16,11.97 -1.31,12.06 -1.46,12.15 -1.62,12.20 -1.78,12.25 -1.96,12.27 -2.13,12.28 -2.30,12.25 -2.47,12.22 -2.62,12.15 -2.78,12.08 -2.92,11.97 -3.05,11.86 -3.16,11.73 -3.27,11.59 -3.34,11.44 -3.41,11.28 -3.44,11.11 -3.47,10.94 -3.46,10.77 -3.45,10.60 -3.40,10.44 -3.35,10.27 -3.29,10.19 -3.23,10.10 -3.04,9.43 -2.85,8.75 -2.73,8.22 -2.61,7.68 -2.48,7.07 -2.36,6.46 -2.25,5.87 -2.14,5.28 -2.06,4.75 -1.98,4.21 -1.91,3.17 -1.84,2.13 -1.68,1.13 -1.51,0.13 -1.15,-0.13 -0.79,-0.39 -0.73,-0.48 -0.67,-0.57 -0.60,-0.65 -0.52,-0.72 -0.42,-0.77 -0.33,-0.82 -0.22,-0.85 -0.12,-0.88 -0.01,-0.88 0.09,-0.88 0.19,-0.86 0.30,-0.84 0.39,-0.79 0.49,-0.74 0.57,-0.67 0.65,-0.60 0.71,-0.51 0.78,-0.43 0.82,-0.33 0.86,-0.23 0.87,-0.12 0.89,-0.01 0.88,0.08 0.87,0.19 0.83,0.29 0.79,0.39 0.79,0.39 L 0.79,0.39 Z"/></g><g transform="translate(174.5741747634119 54.857331469451736) rotate(0 3.4860153198242188 5.618202209472656)" stroke="none"><path fill="#000000" d="M -0.78,0.17 Q -0.78,0.17 -0.89,-0.06 -0.99,-0.31 -1.03,-0.41 -1.07,-0.51 -1.09,-0.62 -1.10,-0.73 -1.09,-0.84 -1.08,-0.95 -1.04,-1.06 -1.01,-1.16 -0.94,-1.26 -0.88,-1.35 -0.80,-1.42 -0.72,-1.50 -0.62,-1.55 -0.52,-1.60 -0.42,-1.63 -0.31,-1.66 -0.20,-1.66 -0.09,-1.66 0.01,-1.64 0.12,-1.61 0.22,-1.56 0.32,-1.51 0.40,-1.44 0.48,-1.37 0.55,-1.28 0.61,-1.19 0.65,-1.09 0.70,-0.98 1.03,-0.20 1.37,0.57 1.62,1.38 1.87,2.19 2.06,3.30 2.25,4.41 2.30,5.00 2.35,5.59 2.37,6.18 2.39,6.76 2.40,7.31 2.41,7.86 2.42,8.82 2.43,9.77 2.42,10.51 2.42,11.25 2.37,11.86 2.32,12.46 2.33,12.51 2.34,12.55 2.31,12.67 2.28,12.80 2.22,12.91 2.16,13.02 2.08,13.11 1.99,13.21 1.89,13.28 1.78,13.35 1.66,13.39 1.55,13.44 1.42,13.45 1.29,13.47 1.17,13.45 1.04,13.44 0.93,13.39 0.81,13.34 0.70,13.27 0.60,13.20 0.52,13.10 0.43,13.01 0.38,12.90 0.32,12.78 0.29,12.66 0.26,12.54 0.26,12.41 0.26,12.28 0.01,11.43 -0.24,10.58 -0.33,9.74 -0.42,8.90 -0.45,8.16 -0.49,7.43 -0.49,6.78 -0.50,6.14 -0.36,5.52 -0.22,4.89 0.05,4.36 0.34,3.82 0.72,3.35 1.10,2.88 1.56,2.38 2.02,1.89 2.45,1.38 2.88,0.87 3.24,0.37 3.61,-0.12 4.97,-0.38 6.33,-0.65 6.38,-0.71 6.43,-0.77 6.49,-0.82 6.56,-0.86 6.63,-0.89 6.71,-0.92 6.78,-0.93 6.86,-0.94 6.94,-0.94 7.02,-0.93 7.09,-0.90 7.17,-0.87 7.24,-0.83 7.30,-0.79 7.35,-0.73 7.41,-0.67 7.45,-0.60 7.48,-0.53 7.50,-0.45 7.52,-0.38 7.52,-0.30 7.53,-0.22 7.51,-0.14 7.49,-0.06 7.45,0.00 7.42,0.07 7.31,0.17 7.19,0.27 7.09,0.31 6.99,0.35 6.89,0.35 6.78,0.35 6.68,0.32 6.58,0.29 6.49,0.23 6.41,0.17 6.35,0.08 6.28,-0.00 6.25,-0.10 6.22,-0.20 6.23,-0.31 6.23,-0.41 6.27,-0.51 6.30,-0.61 6.37,-0.70 6.44,-0.78 6.53,-0.83 6.62,-0.89 6.72,-0.92 6.82,-0.94 6.93,-0.93 7.03,-0.92 7.13,-0.88 7.23,-0.84 7.31,-0.77 7.39,-0.70 7.44,-0.60 7.49,-0.51 7.51,-0.41 7.53,-0.30 7.51,-0.20 7.50,-0.09 7.45,-0.00 7.41,0.09 7.33,0.16 7.25,0.24 7.16,0.28 7.06,0.33 6.96,0.34 6.85,0.36 6.75,0.34 6.64,0.32 6.55,0.27 6.46,0.21 6.39,0.13 6.32,0.05 6.28,-0.03 6.24,-0.13 6.23,-0.24 6.22,-0.34 6.24,-0.45 6.27,-0.55 6.33,-0.64 6.39,-0.73 6.36,-0.69 6.33,-0.65 6.38,-0.71 6.43,-0.77 6.49,-0.82 6.56,-0.86 6.63,-0.89 6.71,-0.92 6.78,-0.93 6.86,-0.94 6.94,-0.94 7.02,-0.93 7.09,-0.90 7.17,-0.87 7.23,-0.83 7.30,-0.79 7.35,-0.73 7.41,-0.67 7.45,-0.60 7.48,-0.53 7.50,-0.45 7.52,-0.38 7.52,-0.30 7.53,-0.22 7.51,-0.14 7.49,-0.06 7.45,0.00 7.42,0.07 6.41,0.57 5.41,1.08 4.94,1.71 4.47,2.34 4.11,2.76 3.75,3.18 3.27,3.69 2.79,4.20 2.42,4.65 2.06,5.10 1.85,5.62 1.63,6.13 1.63,6.75 1.64,7.36 1.68,8.03 1.71,8.69 1.79,9.45 1.86,10.21 1.99,10.84 2.11,11.48 2.22,12.02 2.34,12.55 2.31,12.67 2.28,12.80 2.22,12.91 2.16,13.02 2.08,13.11 1.99,13.21 1.89,13.28 1.78,13.35 1.66,13.39 1.55,13.44 1.42,13.45 1.29,13.47 1.17,13.45 1.04,13.44 0.93,13.39 0.81,13.34 0.70,13.27 0.60,13.20 0.52,13.10 0.43,13.01 0.38,12.90 0.32,12.78 0.29,12.66 0.26,12.54 0.26,12.41 0.26,12.28 0.34,11.96 0.41,11.64 0.44,11.09 0.47,10.54 0.47,9.68 0.47,8.82 0.46,7.82 0.45,6.83 0.43,6.29 0.42,5.75 0.30,4.69 0.19,3.64 -0.00,2.79 -0.21,1.94 -0.41,1.32 -0.62,0.71 -0.84,0.09 -1.07,-0.51 -1.09,-0.62 -1.10,-0.73 -1.09,-0.84 -1.08,-0.95 -1.04,-1.06 -1.01,-1.16 -0.94,-1.26 -0.88,-1.35 -0.80,-1.42 -0.72,-1.50 -0.62,-1.55 -0.52,-1.60 -0.42,-1.63 -0.31,-1.66 -0.20,-1.66 -0.09,-1.66 0.01,-1.64 0.12,-1.61 0.22,-1.56 0.32,-1.51 0.40,-1.44 0.48,-1.37 0.55,-1.28 0.61,-1.19 0.65,-1.09 0.70,-0.98 0.73,-0.85 0.76,-0.71 0.77,-0.44 0.78,-0.17 0.79,-0.08 0.80,0.01 0.79,0.10 0.77,0.20 0.74,0.29 0.70,0.38 0.65,0.46 0.59,0.54 0.51,0.60 0.44,0.67 0.35,0.71 0.27,0.75 0.17,0.77 0.08,0.80 -0.01,0.79 -0.11,0.79 -0.20,0.77 -0.29,0.74 -0.38,0.70 -0.46,0.65 -0.54,0.58 -0.61,0.52 -0.66,0.44 -0.71,0.36 -0.75,0.27 -0.78,0.17 -0.78,0.17 L -0.78,0.17 Z"/></g><g transform="translate(99.0055254714197 147.2767345456236) rotate(0 4.392631530761719 3.9582977294921875)" stroke="none"><path fill="#000000" d="M 0.78,-0.11 Q 0.78,-0.11 0.95,0.36 1.12,0.83 1.19,1.48 1.25,2.12 1.32,3.10 1.39,4.08 1.42,4.96 1.44,5.85 1.44,6.53 1.45,7.22 1.46,7.62 1.47,8.03 1.46,8.15 1.44,8.27 1.40,8.38 1.36,8.49 1.29,8.59 1.23,8.69 1.14,8.77 1.05,8.84 0.94,8.90 0.84,8.96 0.72,8.98 0.60,9.01 0.49,9.01 0.37,9.01 0.25,8.99 0.13,8.96 0.03,8.90 -0.07,8.85 -0.16,8.77 -0.25,8.69 -0.31,8.59 -0.38,8.49 -0.42,8.38 -0.47,8.27 -0.48,8.15 -0.50,8.03 -0.40,7.50 -0.30,6.97 -0.27,6.40 -0.24,5.82 -0.21,5.21 -0.18,4.59 -0.13,3.88 -0.08,3.17 0.01,2.57 0.11,1.97 0.44,1.42 0.76,0.88 1.31,0.56 1.85,0.24 2.42,0.17 2.98,0.10 3.59,0.27 4.19,0.44 4.61,1.04 5.03,1.64 5.15,2.21 5.26,2.78 5.30,3.31 5.34,3.84 5.34,4.61 5.35,5.37 5.35,5.97 5.35,6.57 5.34,7.15 5.34,7.73 5.34,7.63 5.33,7.53 5.36,7.66 5.38,7.79 5.37,7.92 5.36,8.06 5.32,8.18 5.28,8.31 5.21,8.42 5.14,8.54 5.05,8.63 4.95,8.73 4.84,8.79 4.72,8.86 4.60,8.90 4.47,8.94 4.34,8.95 4.20,8.95 4.07,8.93 3.94,8.90 3.82,8.85 3.70,8.79 3.59,8.71 3.49,8.63 3.41,8.52 3.33,8.42 3.27,8.30 3.22,8.17 3.27,7.61 3.31,7.04 3.36,6.38 3.41,5.73 3.49,5.15 3.56,4.57 3.70,3.97 3.85,3.38 4.10,2.77 4.36,2.17 4.68,1.69 5.00,1.22 5.43,0.78 5.85,0.35 6.42,0.08 6.98,-0.18 7.68,-0.02 8.38,0.14 8.66,0.62 8.94,1.09 9.22,1.78 9.49,2.48 9.59,3.07 9.69,3.66 9.53,5.22 9.38,6.78 9.38,6.86 9.38,6.94 9.36,7.01 9.35,7.09 9.31,7.16 9.27,7.23 9.22,7.29 9.17,7.35 9.10,7.40 9.04,7.44 8.97,7.47 8.89,7.50 8.81,7.51 8.74,7.52 8.66,7.51 8.58,7.50 8.50,7.47 8.43,7.45 8.36,7.40 8.30,7.36 8.25,7.30 8.19,7.24 8.16,7.17 8.12,7.10 8.10,7.02 8.08,6.95 8.09,6.80 8.10,6.66 8.15,6.57 8.20,6.47 8.28,6.40 8.35,6.32 8.45,6.28 8.55,6.23 8.65,6.22 8.76,6.21 8.86,6.23 8.96,6.25 9.06,6.30 9.15,6.36 9.22,6.44 9.29,6.52 9.33,6.61 9.37,6.71 9.38,6.82 9.38,6.92 9.36,7.03 9.33,7.13 9.27,7.22 9.21,7.31 9.13,7.37 9.05,7.44 8.95,7.47 8.85,7.51 8.74,7.51 8.63,7.51 8.53,7.48 8.43,7.45 8.35,7.38 8.26,7.32 8.20,7.23 8.14,7.15 8.11,7.04 8.08,6.94 8.08,6.84 8.09,6.73 8.12,6.63 8.16,6.53 8.23,6.45 8.30,6.37 8.39,6.31 8.48,6.26 8.58,6.23 8.69,6.21 8.79,6.22 8.90,6.23 8.99,6.27 9.09,6.31 9.17,6.39 9.25,6.46 9.30,6.55 9.35,6.64 9.37,6.75 9.39,6.85 9.38,6.82 9.38,6.78 9.38,6.86 9.38,6.94 9.36,7.01 9.35,7.09 9.31,7.16 9.27,7.23 9.22,7.29 9.17,7.35 9.10,7.40 9.04,7.44 8.97,7.47 8.89,7.50 8.81,7.51 8.74,7.52 8.66,7.51 8.58,7.50 8.50,7.47 8.43,7.45 8.36,7.40 8.30,7.36 8.25,7.30 8.19,7.24 8.16,7.17 8.12,7.10 8.10,7.02 8.08,6.95 7.71,5.66 7.33,4.38 7.24,3.73 7.15,3.08 7.27,2.52 7.40,1.97 7.01,2.36 6.61,2.74 6.34,3.24 6.06,3.74 5.90,4.28 5.74,4.81 5.66,5.60 5.58,6.39 5.46,6.96 5.33,7.53 5.36,7.66 5.38,7.79 5.37,7.92 5.36,8.06 5.32,8.18 5.28,8.31 5.21,8.42 5.14,8.54 5.05,8.63 4.95,8.73 4.84,8.79 4.72,8.86 4.60,8.90 4.47,8.94 4.34,8.95 4.20,8.95 4.07,8.93 3.94,8.90 3.82,8.85 3.70,8.79 3.59,8.71 3.49,8.63 3.41,8.52 3.33,8.42 3.27,8.30 3.22,8.17 3.23,8.20 3.25,8.23 3.19,7.68 3.12,7.12 3.12,6.53 3.12,5.94 3.11,5.40 3.11,4.86 3.10,4.16 3.09,3.46 2.87,2.84 2.66,2.22 2.27,2.59 1.87,2.95 1.83,3.57 1.78,4.18 1.75,4.72 1.73,5.27 1.70,5.90 1.68,6.54 1.58,7.28 1.47,8.03 1.46,8.15 1.44,8.27 1.40,8.38 1.36,8.49 1.29,8.59 1.23,8.69 1.14,8.77 1.05,8.84 0.94,8.90 0.84,8.96 0.72,8.98 0.60,9.01 0.49,9.01 0.37,9.01 0.25,8.99 0.13,8.96 0.03,8.90 -0.07,8.85 -0.16,8.77 -0.25,8.69 -0.31,8.59 -0.38,8.49 -0.42,8.38 -0.47,8.27 -0.48,8.15 -0.50,8.03 -0.51,7.63 -0.53,7.23 -0.53,6.55 -0.54,5.87 -0.55,5.05 -0.57,4.22 -0.64,3.27 -0.71,2.32 -0.77,1.72 -0.83,1.13 -0.81,0.62 -0.78,0.11 -0.79,0.02 -0.79,-0.07 -0.77,-0.16 -0.75,-0.26 -0.70,-0.34 -0.66,-0.43 -0.60,-0.50 -0.54,-0.58 -0.46,-0.63 -0.38,-0.69 -0.30,-0.73 -0.21,-0.76 -0.11,-0.78 -0.02,-0.79 0.07,-0.78 0.16,-0.77 0.26,-0.74 0.35,-0.71 0.43,-0.66 0.51,-0.61 0.57,-0.54 0.64,-0.47 0.68,-0.38 0.73,-0.30 0.76,-0.21 0.78,-0.11 0.78,-0.11 L 0.78,-0.11 Z"/></g><g transform="translate(16.158365132064233 156.85322685519392) rotate(0 3.026325225830078 3.5241546630859375)" stroke="none"><path fill="#000000" d="M -0.70,0.29 Q -0.70,0.29 -0.82,0.04 -0.94,-0.19 -1.13,-0.48 -1.33,-0.77 -1.36,-0.89 -1.39,-1.01 -1.39,-1.14 -1.39,-1.26 -1.36,-1.38 -1.33,-1.50 -1.27,-1.61 -1.21,-1.72 -1.13,-1.81 -1.05,-1.90 -0.95,-1.97 -0.85,-2.04 -0.73,-2.09 -0.62,-2.13 -0.49,-2.14 -0.37,-2.16 -0.25,-2.14 -0.13,-2.13 -0.01,-2.09 0.09,-2.04 0.19,-1.97 0.30,-1.90 0.38,-1.81 0.46,-1.72 0.52,-1.61 0.57,-1.50 0.60,-0.88 0.62,-0.25 0.70,0.56 0.77,1.37 0.86,1.92 0.94,2.46 1.03,3.03 1.11,3.60 1.18,4.19 1.26,4.77 1.30,5.48 1.35,6.19 1.36,6.35 1.37,6.50 1.36,6.62 1.35,6.74 1.31,6.86 1.27,6.97 1.20,7.08 1.13,7.18 1.04,7.26 0.95,7.34 0.84,7.40 0.74,7.46 0.62,7.49 0.50,7.53 0.38,7.53 0.25,7.53 0.13,7.50 0.01,7.48 -0.09,7.42 -0.20,7.37 -0.29,7.29 -0.38,7.21 -0.46,7.11 -0.53,7.01 -0.57,6.90 -0.62,6.78 -0.64,6.66 -0.65,6.54 -0.68,5.81 -0.70,5.09 -0.79,4.38 -0.88,3.68 -0.92,2.91 -0.97,2.14 -0.94,1.57 -0.92,0.99 -0.72,0.34 -0.52,-0.31 -0.13,-0.74 0.26,-1.16 0.81,-1.60 1.37,-2.03 1.90,-2.38 2.43,-2.74 2.96,-2.87 3.49,-3.00 4.12,-2.82 4.75,-2.64 5.23,-2.25 5.70,-1.86 6.11,-1.28 6.52,-0.70 6.69,-0.16 6.86,0.38 6.98,0.95 7.10,1.53 7.20,2.05 7.29,2.58 7.39,3.17 7.48,3.75 7.52,4.43 7.57,5.11 7.63,5.70 7.68,6.30 7.28,7.31 6.87,8.33 6.87,8.40 6.87,8.48 6.85,8.56 6.83,8.64 6.80,8.71 6.76,8.78 6.71,8.84 6.66,8.90 6.59,8.95 6.53,8.99 6.46,9.02 6.38,9.05 6.30,9.06 6.23,9.07 6.15,9.06 6.07,9.05 5.99,9.03 5.92,9.00 5.85,8.96 5.79,8.91 5.73,8.85 5.68,8.80 5.64,8.73 5.60,8.66 5.58,8.58 5.56,8.50 5.56,8.42 5.56,8.34 5.59,8.24 5.62,8.13 5.68,8.05 5.74,7.96 5.83,7.90 5.91,7.83 6.01,7.80 6.11,7.77 6.22,7.77 6.33,7.77 6.43,7.80 6.53,7.84 6.61,7.90 6.70,7.97 6.75,8.06 6.81,8.14 6.84,8.25 6.87,8.35 6.86,8.46 6.86,8.56 6.82,8.66 6.77,8.76 6.71,8.84 6.64,8.92 6.54,8.97 6.45,9.03 6.35,9.05 6.24,9.07 6.14,9.06 6.03,9.05 5.94,9.00 5.84,8.95 5.77,8.88 5.69,8.81 5.64,8.71 5.59,8.62 5.57,8.51 5.56,8.41 5.58,8.30 5.60,8.20 5.65,8.11 5.70,8.01 5.77,7.94 5.85,7.87 5.95,7.82 6.05,7.78 6.15,7.77 6.26,7.76 6.36,7.78 6.46,7.81 6.55,7.86 6.65,7.92 6.71,8.00 6.78,8.08 6.82,8.18 6.86,8.28 6.86,8.30 6.87,8.33 6.87,8.40 6.87,8.48 6.85,8.56 6.83,8.64 6.80,8.71 6.76,8.78 6.71,8.84 6.66,8.90 6.59,8.95 6.53,8.99 6.46,9.02 6.38,9.05 6.30,9.06 6.23,9.07 6.15,9.06 6.07,9.05 5.99,9.03 5.92,9.00 5.85,8.96 5.79,8.91 5.73,8.85 5.68,8.80 5.64,8.73 5.60,8.66 5.58,8.58 5.56,8.50 5.31,7.06 5.06,5.62 5.03,5.05 5.00,4.48 4.90,3.82 4.80,3.15 4.71,2.60 4.62,2.05 4.53,1.51 4.44,0.96 4.24,0.37 4.05,-0.22 3.47,-0.34 2.89,-0.45 2.45,-0.14 2.01,0.16 1.59,0.55 1.17,0.93 1.11,1.50 1.06,2.06 1.10,2.76 1.14,3.46 1.22,4.18 1.31,4.89 1.34,5.69 1.37,6.50 1.36,6.62 1.35,6.74 1.31,6.86 1.27,6.97 1.20,7.08 1.13,7.18 1.04,7.26 0.95,7.34 0.84,7.40 0.74,7.46 0.62,7.49 0.50,7.53 0.38,7.53 0.25,7.53 0.13,7.50 0.01,7.48 -0.09,7.42 -0.20,7.37 -0.29,7.29 -0.38,7.21 -0.46,7.11 -0.53,7.01 -0.57,6.90 -0.62,6.78 -0.64,6.66 -0.65,6.54 -0.69,6.04 -0.73,5.53 -0.82,4.75 -0.91,3.97 -0.99,3.39 -1.08,2.81 -1.18,2.19 -1.27,1.57 -1.34,0.94 -1.41,0.32 -1.37,-0.22 -1.33,-0.77 -1.36,-0.89 -1.39,-1.01 -1.39,-1.14 -1.39,-1.26 -1.36,-1.38 -1.33,-1.50 -1.27,-1.61 -1.21,-1.72 -1.13,-1.81 -1.05,-1.90 -0.95,-1.97 -0.85,-2.04 -0.73,-2.09 -0.62,-2.13 -0.49,-2.14 -0.37,-2.16 -0.25,-2.14 -0.13,-2.13 -0.01,-2.09 0.09,-2.04 0.19,-1.97 0.30,-1.90 0.38,-1.81 0.46,-1.72 0.52,-1.61 0.57,-1.50 0.55,-1.15 0.53,-0.80 0.62,-0.54 0.70,-0.29 0.73,-0.20 0.75,-0.11 0.75,-0.02 0.76,0.07 0.74,0.16 0.72,0.25 0.68,0.33 0.64,0.41 0.58,0.48 0.52,0.55 0.44,0.61 0.37,0.66 0.28,0.70 0.20,0.73 0.11,0.75 0.02,0.76 -0.07,0.75 -0.16,0.74 -0.24,0.71 -0.33,0.68 -0.41,0.63 -0.49,0.58 -0.55,0.51 -0.61,0.45 -0.66,0.37 -0.70,0.29 -0.70,0.29 L -0.70,0.29 Z"/></g></svg>