<svg version="1.1" xmlns="http://www.w3.org/2000/svg" viewBox="0 0 316.73746569156646 96.85785675048828" width="316.73746569156646" height="96.85785675048828">
  <!-- svg-source:excalidraw -->
  
  <defs>
    <style class="style-fonts">
      @font-face {
        font-family: "Virgil";
        src: url("https://excalidraw.com/Virgil.woff2");
      }
      @font-face {
        font-family: "Cascadia";
        src: url("https://excalidraw.com/Cascadia.woff2");
      }
    </style>
  </defs>
  <rect x="0" y="0" width="316.73746569156646" height="96.85785675048828" fill="#ffffff"/><g stroke-linecap="round" transform="translate(42.389036165922874 36.66090393066406) rotate(0 26.1837158203125 24.446083068847656)"><path d="M12.22 0 M12.22 0 C21 1.11, 25.06 0.26, 40.14 0 M12.22 0 C21.59 -0.86, 32.8 0.69, 40.14 0 M40.14 0 C47.29 -0.52, 53.05 3.99, 52.37 12.22 M40.14 0 C48.08 2.3, 53.05 2.31, 52.37 12.22 M52.37 12.22 C51.83 16.92, 53.63 24.33, 52.37 36.67 M52.37 12.22 C51.46 22, 51.18 29.21, 52.37 36.67 M52.37 36.67 C51.09 43.74, 50.11 47.79, 40.14 48.89 M52.37 36.67 C53.56 47.02, 47.98 48.31, 40.14 48.89 M40.14 48.89 C32.06 49.74, 24.12 50.08, 12.22 48.89 M40.14 48.89 C31.65 48.53, 20.65 49.79, 12.22 48.89 M12.22 48.89 C4.56 46.95, -0.58 45.25, 0 36.67 M12.22 48.89 C3.73 48.87, -2.05 43.27, 0 36.67 M0 36.67 C0.05 32.96, -1.06 24.97, 0 12.22 M0 36.67 C0.42 29.9, 1.05 24.33, 0 12.22 M0 12.22 C-0.85 4.27, 3.12 -0.45, 12.22 0 M0 12.22 C-2.09 2.78, 5.62 -2.13, 12.22 0" stroke="#000000" stroke-width="1" fill="none"/></g><g stroke-linecap="round" transform="translate(218.50375174209475 37.96569061279297) rotate(0 26.1837158203125 24.446083068847656)"><path d="M12.22 0 M12.22 0 C20.32 -0.98, 30.1 -1.86, 40.14 0 M12.22 0 C20.77 -0.9, 29.14 0.69, 40.14 0 M40.14 0 C47.54 -0.52, 51.01 2.16, 52.37 12.22 M40.14 0 C50.41 0.11, 51.31 2.89, 52.37 12.22 M52.37 12.22 C50.62 21.9, 51.18 29.66, 52.37 36.67 M52.37 12.22 C51.68 18.26, 52.28 24.29, 52.37 36.67 M52.37 36.67 C54.24 44.27, 49.18 50.68, 40.14 48.89 M52.37 36.67 C51.71 44.78, 47.91 47.25, 40.14 48.89 M40.14 48.89 C32.21 50.41, 25.2 50.68, 12.22 48.89 M40.14 48.89 C33.78 48.09, 28.43 49.37, 12.22 48.89 M12.22 48.89 C3.42 48.13, 0.44 43.81, 0 36.67 M12.22 48.89 C6.28 50.68, 1.72 46.02, 0 36.67 M0 36.67 C-0.46 27.89, -0.45 22.8, 0 12.22 M0 36.67 C0.77 28.11, 0.42 19.61, 0 12.22 M0 12.22 C-0.67 5.54, 4.9 -1.01, 12.22 0 M0 12.22 C0.69 2.89, 3.5 -0.64, 12.22 0" stroke="#000000" stroke-width="1" fill="none"/></g><g stroke-linecap="round"><g transform="translate(10.433042513579124 59.682159423828125) rotate(0 15.949386596679688 0.279815673828125)"><path d="M-0.43 0.6 C4.96 0.78, 26.07 0.21, 31.5 0.1 M1.54 -0.12 C6.81 0.29, 25.35 1.22, 30.35 1.4" stroke="#000000" stroke-width="1" fill="none"/></g></g><mask/><g stroke-linecap="round"><g transform="translate(274.017484652251 60.241851806640625) rotate(0 16.509002685546875 -0.55963134765625)"><path d="M0.36 -0.62 C5.73 -0.76, 27.25 -1.35, 32.72 -1.45 M-0.91 1.67 C4.23 1.76, 26.05 0.19, 31.62 -0.09" stroke="#000000" stroke-width="1" fill="none"/></g></g><mask/><g stroke-linecap="round"><g transform="translate(94.37713431045412 61.920684814453125) rotate(0 41.69227600097656 -15.3897705078125)"><path d="M0.08 -0.43 C6.47 -0.16, 24.61 5.82, 38.62 0.68 C52.63 -4.46, 76.69 -26.13, 84.15 -31.29 M-1.34 -1.71 C4.87 -1.7, 23.48 3.67, 37.67 -1.09 C51.86 -5.84, 76.13 -24.99, 83.79 -30.24" stroke="#000000" stroke-width="1" fill="none"/></g></g><mask/><g stroke-linecap="round"><g transform="translate(216.3760051600635 60.801422119140625) rotate(0 -38.61431884765625 -15.669578552246094)"><path d="M-0.6 0.11 C-6.96 -0.19, -24.71 3.46, -37.34 -1.8 C-49.97 -7.06, -69.72 -26.71, -76.39 -31.44 M1.28 -0.87 C-5.33 -1.55, -25.5 1.19, -38.5 -3.69 C-51.5 -8.58, -70.26 -25.44, -76.72 -30.18" stroke="#000000" stroke-width="1" fill="none"/></g></g><mask/><g transform="translate(163.54403494521975 14.74993896484375) rotate(0 -7.84033203125 7.712249755859375)" stroke="none"><path fill="#000000" d="M -0.75,0.28 Q -0.75,0.28 -1.03,-0.36 -1.31,-1.01 -1.69,-1.80 -2.06,-2.59 -2.51,-2.96 -2.96,-3.33 -3.58,-3.24 -4.20,-3.15 -4.98,-2.63 -5.76,-2.11 -6.17,-1.67 -6.58,-1.22 -7.15,-0.57 -7.73,0.06 -8.28,0.82 -8.83,1.58 -9.40,2.46 -9.97,3.33 -10.37,4.18 -10.77,5.02 -11.07,5.80 -11.37,6.58 -11.53,7.19 -11.69,7.80 -11.68,8.37 -11.66,8.94 -10.70,9.12 -9.73,9.31 -9.10,9.41 -8.47,9.51 -7.80,9.61 -7.13,9.72 -6.47,9.86 -5.80,10.00 -5.20,10.21 -4.61,10.43 -4.11,10.66 -3.61,10.89 -3.14,11.25 -2.66,11.60 -2.12,12.55 -1.58,13.50 -1.70,14.57 -1.82,15.65 -2.14,16.12 -2.45,16.60 -2.88,17.03 -3.30,17.47 -3.80,17.82 -4.29,18.17 -4.92,18.48 -5.54,18.79 -6.17,19.04 -6.80,19.29 -7.42,19.54 -8.04,19.79 -8.66,20.06 -9.27,20.33 -10.01,20.55 -10.74,20.78 -11.42,20.94 -12.11,21.10 -14.11,20.11 -16.12,19.11 -16.16,19.01 -16.21,18.91 -16.21,18.81 -16.22,18.70 -16.19,18.60 -16.17,18.50 -16.11,18.41 -16.05,18.32 -15.97,18.25 -15.89,18.18 -15.79,18.15 -15.69,18.11 -15.58,18.11 -15.47,18.11 -15.37,18.14 -15.27,18.17 -15.19,18.23 -15.10,18.30 -15.04,18.38 -14.98,18.47 -14.95,18.57 -14.92,18.67 -14.92,18.78 -14.92,18.89 -14.96,18.99 -15.00,19.08 -15.06,19.17 -15.13,19.25 -15.22,19.31 -15.31,19.36 -15.41,19.39 -15.52,19.41 -15.62,19.40 -15.73,19.39 -15.83,19.35 -15.92,19.31 -16.00,19.24 -16.08,19.17 -16.13,19.07 -16.18,18.98 -16.20,18.88 -16.22,18.77 -16.21,18.67 -16.19,18.56 -16.15,18.47 -16.10,18.37 -16.02,18.30 -15.95,18.22 -15.85,18.18 -15.76,18.13 -15.65,18.12 -15.55,18.10 -15.44,18.12 -15.34,18.14 -15.24,18.20 -15.15,18.25 -15.08,18.33 -15.01,18.41 -15.01,18.41 -15.01,18.41 -13.87,18.48 -12.73,18.56 -12.11,18.41 -11.50,18.25 -10.90,18.07 -10.30,17.90 -9.66,17.63 -9.01,17.36 -8.39,17.11 -7.77,16.87 -6.74,16.45 -5.71,16.04 -5.09,15.59 -4.47,15.15 -4.19,14.51 -3.92,13.88 -4.29,13.48 -4.66,13.09 -5.48,12.73 -6.29,12.38 -6.90,12.25 -7.51,12.13 -8.19,12.03 -8.86,11.92 -9.53,11.81 -10.19,11.70 -10.87,11.56 -11.55,11.43 -12.18,11.18 -12.81,10.93 -13.35,10.38 -13.89,9.84 -14.07,9.15 -14.25,8.47 -14.19,7.81 -14.12,7.15 -13.92,6.41 -13.72,5.67 -13.38,4.80 -13.05,3.92 -12.57,2.94 -12.09,1.96 -11.48,1.03 -10.87,0.10 -10.24,-0.75 -9.61,-1.61 -9.01,-2.28 -8.40,-2.96 -7.82,-3.55 -7.25,-4.15 -6.21,-4.80 -5.17,-5.45 -4.66,-5.63 -4.16,-5.81 -3.28,-5.72 -2.39,-5.64 -1.75,-5.19 -1.10,-4.75 -0.70,-4.08 -0.30,-3.41 0.00,-2.52 0.31,-1.62 0.53,-0.95 0.75,-0.28 0.78,-0.19 0.80,-0.09 0.80,0.00 0.80,0.09 0.78,0.19 0.75,0.28 0.71,0.37 0.66,0.46 0.60,0.53 0.53,0.60 0.45,0.66 0.37,0.71 0.28,0.75 0.19,0.78 0.09,0.80 -0.00,0.81 -0.09,0.79 -0.19,0.78 -0.28,0.75 -0.37,0.71 -0.45,0.66 -0.53,0.60 -0.60,0.53 -0.66,0.46 -0.71,0.37 -0.75,0.28 -0.75,0.28 L -0.75,0.28 Z"/></g><g transform="translate(235.103178011626 51.319305419921875) rotate(0 7.380645751953125 -1.4045562744140625)" stroke="none"><path fill="#000000" d="M -0.12,-0.88 Q -0.12,-0.88 0.72,-1.16 1.56,-1.43 2.21,-1.58 2.86,-1.74 3.51,-1.90 4.15,-2.06 4.85,-2.24 5.55,-2.41 6.18,-2.60 6.82,-2.79 7.47,-3.01 8.12,-3.23 8.87,-3.40 9.62,-3.57 10.23,-3.73 10.85,-3.88 11.51,-3.96 12.17,-4.04 13.11,-3.05 14.05,-2.07 14.13,-2.06 14.21,-2.06 14.29,-2.04 14.37,-2.02 14.44,-1.99 14.51,-1.95 14.57,-1.90 14.62,-1.84 14.67,-1.78 14.71,-1.71 14.74,-1.64 14.77,-1.56 14.78,-1.49 14.79,-1.41 14.78,-1.33 14.77,-1.25 14.74,-1.18 14.71,-1.10 14.66,-1.04 14.62,-0.97 14.56,-0.92 14.50,-0.87 14.43,-0.83 14.36,-0.80 14.28,-0.78 14.20,-0.76 14.32,-0.79 14.43,-0.83 14.33,-0.80 14.22,-0.76 14.12,-0.76 14.01,-0.77 13.91,-0.80 13.81,-0.84 13.73,-0.90 13.64,-0.97 13.59,-1.06 13.53,-1.15 13.50,-1.25 13.48,-1.35 13.48,-1.46 13.49,-1.56 13.53,-1.66 13.57,-1.76 13.64,-1.84 13.71,-1.92 13.80,-1.97 13.90,-2.03 14.00,-2.05 14.10,-2.07 14.21,-2.06 14.32,-2.04 14.41,-2.00 14.51,-1.95 14.58,-1.88 14.66,-1.80 14.71,-1.71 14.75,-1.61 14.77,-1.51 14.79,-1.40 14.77,-1.30 14.75,-1.19 14.70,-1.10 14.65,-1.01 14.57,-0.93 14.49,-0.86 14.39,-0.82 14.29,-0.78 14.19,-0.77 14.08,-0.76 13.98,-0.78 13.88,-0.81 13.79,-0.86 13.70,-0.92 13.63,-1.00 13.56,-1.08 13.52,-1.18 13.49,-1.28 13.48,-1.39 13.48,-1.49 13.51,-1.60 13.54,-1.70 13.60,-1.79 13.66,-1.87 13.86,-1.97 14.05,-2.07 14.13,-2.06 14.21,-2.06 14.29,-2.04 14.37,-2.02 14.44,-1.99 14.51,-1.95 14.57,-1.90 14.62,-1.84 14.67,-1.78 14.71,-1.71 14.74,-1.64 14.77,-1.56 14.78,-1.49 14.79,-1.41 14.78,-1.33 14.77,-1.25 14.74,-1.18 14.71,-1.10 14.66,-1.04 14.62,-0.97 14.56,-0.92 14.50,-0.87 14.43,-0.83 14.36,-0.80 14.28,-0.78 14.20,-0.76 12.85,-1.02 11.49,-1.27 10.85,-1.12 10.21,-0.96 9.59,-0.83 8.96,-0.69 8.25,-0.46 7.54,-0.22 6.84,-0.03 6.15,0.14 5.43,0.30 4.71,0.45 4.03,0.58 3.36,0.71 2.62,0.84 1.89,0.96 1.00,0.92 0.12,0.88 0.01,0.89 -0.09,0.89 -0.20,0.86 -0.30,0.84 -0.40,0.79 -0.49,0.74 -0.58,0.67 -0.66,0.60 -0.72,0.51 -0.78,0.42 -0.82,0.32 -0.86,0.22 -0.88,0.11 -0.89,0.01 -0.88,-0.09 -0.87,-0.20 -0.83,-0.30 -0.79,-0.40 -0.73,-0.49 -0.67,-0.58 -0.59,-0.65 -0.51,-0.73 -0.42,-0.78 -0.32,-0.83 -0.22,-0.86 -0.12,-0.88 -0.12,-0.88 L -0.12,-0.88 Z"/></g><g transform="translate(242.86691092178225 51.319305419921875) rotate(0 -1.225799560546875 11.440704345703125)" stroke="none"><path fill="#000000" d="M 0.84,-0.09 Q 0.84,-0.09 1.07,0.39 1.29,0.89 1.31,1.80 1.33,2.71 1.24,3.97 1.16,5.23 0.97,6.76 0.79,8.29 0.55,9.94 0.31,11.59 0.01,13.27 -0.28,14.95 -0.54,16.44 -0.80,17.92 -1.35,20.56 -1.89,23.21 -1.91,23.31 -1.92,23.42 -1.98,23.51 -2.03,23.60 -2.11,23.68 -2.19,23.75 -2.28,23.79 -2.38,23.83 -2.49,23.84 -2.59,23.85 -2.70,23.83 -2.80,23.80 -2.89,23.74 -2.98,23.69 -3.05,23.60 -3.11,23.52 -3.15,23.42 -3.19,23.32 -3.19,23.22 -3.19,23.11 -3.16,23.01 -3.13,22.91 -3.07,22.82 -3.01,22.73 -2.92,22.67 -2.84,22.61 -2.74,22.58 -2.64,22.55 -2.53,22.55 -2.42,22.55 -2.32,22.59 -2.22,22.62 -2.14,22.69 -2.06,22.75 -2.00,22.84 -1.94,22.93 -1.91,23.04 -1.89,23.14 -1.90,23.24 -1.90,23.35 -1.95,23.45 -1.99,23.55 -2.06,23.63 -2.13,23.70 -2.22,23.76 -2.31,23.81 -2.42,23.83 -2.52,23.85 -2.63,23.84 -2.73,23.82 -2.83,23.78 -2.92,23.73 -3.00,23.66 -3.07,23.58 -3.12,23.49 -3.17,23.39 -3.18,23.29 -3.20,23.18 -3.20,23.18 -3.20,23.18 -3.16,20.35 -3.13,17.52 -2.87,16.03 -2.62,14.54 -2.34,12.89 -2.05,11.24 -1.82,9.62 -1.58,8.00 -1.40,6.53 -1.22,5.07 -1.14,3.90 -1.05,2.74 -1.06,1.95 -1.06,1.16 -0.95,0.62 -0.84,0.09 -0.84,-0.00 -0.84,-0.10 -0.81,-0.20 -0.79,-0.30 -0.74,-0.39 -0.69,-0.48 -0.62,-0.56 -0.55,-0.63 -0.47,-0.69 -0.38,-0.75 -0.29,-0.78 -0.19,-0.82 -0.09,-0.83 0.00,-0.84 0.10,-0.83 0.20,-0.82 0.30,-0.78 0.39,-0.74 0.48,-0.68 0.56,-0.63 0.63,-0.55 0.70,-0.47 0.74,-0.38 0.79,-0.29 0.81,-0.19 0.84,-0.09 0.84,-0.09 L 0.84,-0.09 Z"/></g><g transform="translate(57.50790213271975 54.0262451171875) rotate(0 11.5689697265625 -0.2298126220703125)" stroke="none"><path fill="#000000" d="M 0.57,-0.57 Q 0.57,-0.57 0.85,-0.57 1.12,-0.56 1.78,-0.60 2.43,-0.65 2.99,-0.76 3.54,-0.87 4.06,-1.22 4.57,-1.58 5.13,-1.70 5.70,-1.83 6.38,-1.88 7.05,-1.92 7.68,-1.94 8.30,-1.96 8.85,-1.97 9.40,-1.99 10.02,-1.99 10.64,-2.00 11.16,-2.13 11.68,-2.27 12.39,-2.34 13.09,-2.42 13.63,-2.37 14.17,-2.33 14.83,-2.17 15.49,-2.02 16.26,-1.94 17.04,-1.85 17.57,-1.98 18.10,-2.10 18.69,-1.97 19.28,-1.83 19.89,-2.11 20.50,-2.39 21.47,-1.97 22.44,-1.54 22.51,-1.53 22.59,-1.52 22.67,-1.49 22.74,-1.47 22.81,-1.42 22.87,-1.38 22.92,-1.32 22.98,-1.26 23.01,-1.19 23.05,-1.12 23.07,-1.04 23.09,-0.96 23.09,-0.89 23.09,-0.81 23.07,-0.73 23.05,-0.65 23.02,-0.58 22.98,-0.51 22.93,-0.45 22.88,-0.39 22.81,-0.35 22.75,-0.30 22.67,-0.27 22.60,-0.25 22.52,-0.24 22.44,-0.23 22.22,-0.31 22.00,-0.40 21.93,-0.48 21.86,-0.56 21.83,-0.66 21.79,-0.76 21.79,-0.87 21.79,-0.98 21.82,-1.08 21.85,-1.18 21.92,-1.26 21.98,-1.35 22.07,-1.41 22.15,-1.47 22.25,-1.50 22.36,-1.53 22.46,-1.53 22.57,-1.53 22.67,-1.49 22.77,-1.45 22.85,-1.38 22.93,-1.32 22.99,-1.23 23.04,-1.14 23.07,-1.03 23.09,-0.93 23.08,-0.82 23.08,-0.72 23.03,-0.62 22.99,-0.52 22.92,-0.45 22.85,-0.37 22.75,-0.32 22.66,-0.26 22.56,-0.25 22.45,-0.23 22.35,-0.24 22.24,-0.26 22.15,-0.30 22.05,-0.35 21.98,-0.43 21.90,-0.50 21.86,-0.60 21.81,-0.69 21.80,-0.80 21.78,-0.91 21.80,-1.01 21.82,-1.11 21.88,-1.21 21.93,-1.30 22.01,-1.37 22.09,-1.44 22.19,-1.48 22.29,-1.52 22.39,-1.53 22.50,-1.54 22.60,-1.51 22.70,-1.48 22.57,-1.51 22.44,-1.54 22.51,-1.53 22.59,-1.52 22.67,-1.49 22.74,-1.47 22.81,-1.42 22.87,-1.38 22.92,-1.32 22.98,-1.26 23.01,-1.19 23.05,-1.12 23.07,-1.04 23.09,-0.96 23.09,-0.89 23.09,-0.81 23.07,-0.73 23.05,-0.65 23.02,-0.58 22.98,-0.51 22.93,-0.45 22.88,-0.39 22.81,-0.35 22.75,-0.30 22.67,-0.27 22.60,-0.25 22.52,-0.24 22.44,-0.23 21.26,0.17 20.08,0.58 19.31,0.73 18.55,0.89 18.02,0.79 17.50,0.69 16.92,0.65 16.35,0.61 15.63,0.67 14.92,0.73 14.38,0.61 13.85,0.50 13.22,0.49 12.60,0.48 12.03,0.59 11.47,0.70 10.88,0.73 10.29,0.77 9.68,0.76 9.06,0.76 8.49,0.81 7.93,0.85 7.33,0.73 6.74,0.60 6.10,0.83 5.45,1.06 4.96,1.27 4.47,1.48 3.62,1.68 2.78,1.88 2.14,1.87 1.51,1.85 0.95,1.76 0.40,1.67 -0.07,1.41 -0.54,1.15 -0.55,0.86 -0.57,0.57 -0.63,0.49 -0.69,0.42 -0.73,0.33 -0.77,0.24 -0.79,0.14 -0.81,0.04 -0.80,-0.04 -0.80,-0.14 -0.77,-0.24 -0.74,-0.33 -0.69,-0.41 -0.64,-0.50 -0.57,-0.57 -0.50,-0.64 -0.41,-0.69 -0.33,-0.74 -0.24,-0.77 -0.14,-0.80 -0.04,-0.80 0.04,-0.81 0.14,-0.79 0.24,-0.77 0.33,-0.73 0.42,-0.69 0.49,-0.63 0.57,-0.57 0.57,-0.57 L 0.57,-0.57 Z"/></g><g transform="translate(69.66430472061037 52.442962646484375) rotate(0 -0.58740234375 12.717559814453125)" stroke="none"><path fill="#000000" d="M 0.82,0.03 Q 0.82,0.03 0.86,0.35 0.91,0.66 0.81,1.25 0.72,1.84 0.75,2.39 0.79,2.95 0.80,3.55 0.81,4.15 0.86,4.73 0.91,5.32 0.98,6.04 1.04,6.77 1.03,7.35 1.03,7.93 1.00,8.65 0.97,9.36 0.93,9.99 0.89,10.63 0.86,11.20 0.83,11.78 0.71,12.43 0.59,13.08 0.49,13.70 0.38,14.32 0.28,14.92 0.18,15.53 0.15,16.07 0.12,16.62 0.11,17.18 0.10,17.75 0.11,18.29 0.13,18.83 0.16,19.39 0.20,19.95 0.23,20.53 0.25,21.11 0.22,21.65 0.20,22.18 0.12,23.63 0.04,25.08 0.08,25.18 0.11,25.28 0.12,25.38 0.12,25.49 0.09,25.59 0.06,25.69 -0.00,25.78 -0.06,25.86 -0.14,25.93 -0.23,25.99 -0.33,26.02 -0.43,26.05 -0.54,26.05 -0.65,26.05 -0.74,26.01 -0.84,25.97 -0.93,25.91 -1.01,25.84 -1.07,25.75 -1.13,25.66 -1.15,25.56 -1.18,25.46 -1.17,25.35 -1.16,25.24 -1.12,25.15 -1.08,25.05 -1.01,24.97 -0.93,24.89 -0.84,24.84 -0.75,24.78 -0.65,24.76 -0.54,24.74 -0.44,24.76 -0.33,24.77 -0.24,24.82 -0.14,24.87 -0.06,24.94 0.00,25.02 0.05,25.11 0.09,25.21 0.11,25.31 0.12,25.42 0.10,25.52 0.08,25.63 0.03,25.72 -0.01,25.81 -0.09,25.88 -0.17,25.95 -0.27,26.00 -0.36,26.04 -0.47,26.05 -0.57,26.06 -0.68,26.03 -0.78,26.00 -0.87,25.95 -0.96,25.89 -1.03,25.81 -1.09,25.72 -1.09,25.72 -1.09,25.73 -1.69,24.17 -2.28,22.61 -2.24,22.08 -2.20,21.54 -2.18,20.97 -2.17,20.40 -2.22,19.69 -2.28,18.98 -2.26,18.44 -2.25,17.90 -2.24,17.37 -2.23,16.84 -2.20,16.24 -2.17,15.63 -2.08,14.99 -2.00,14.36 -1.88,13.74 -1.77,13.12 -1.65,12.42 -1.53,11.72 -1.45,11.11 -1.38,10.51 -1.32,9.92 -1.27,9.33 -1.24,8.61 -1.21,7.89 -1.19,7.35 -1.16,6.82 -1.21,6.13 -1.25,5.43 -1.29,4.79 -1.32,4.15 -1.31,3.55 -1.30,2.94 -1.28,2.38 -1.25,1.82 -1.11,1.20 -0.96,0.57 -0.89,0.26 -0.82,-0.03 -0.80,-0.13 -0.79,-0.23 -0.75,-0.32 -0.71,-0.41 -0.65,-0.49 -0.59,-0.57 -0.51,-0.63 -0.43,-0.70 -0.34,-0.74 -0.25,-0.78 -0.15,-0.80 -0.06,-0.82 0.03,-0.81 0.13,-0.81 0.23,-0.78 0.32,-0.75 0.41,-0.70 0.50,-0.65 0.57,-0.58 0.64,-0.51 0.69,-0.43 0.74,-0.34 0.77,-0.25 0.80,-0.15 0.81,-0.05 0.82,0.03 0.82,0.03 L 0.82,0.03 Z"/></g></svg>